<?xml version="1.0" encoding="UTF-8"?>
<svg width="95px" height="70px" viewBox="0 0 95 70" version="1.1" xmlns="http://www.w3.org/2000/svg" xmlns:xlink="http://www.w3.org/1999/xlink">
    <!-- Generator: Sketch 57.1 (83088) - https://sketch.com -->
    <title>Group 4</title>
    <desc>Created with Sketch.</desc>
    <g id="🚗-General" stroke="none" stroke-width="1" fill="none" fill-rule="evenodd">
        <g id="top/form---contact" transform="translate(-246.000000, -267.000000)">
            <g id="Group-3" transform="translate(15.717333, 181.000000)">
                <g id="Group-4" transform="translate(230.282667, 86.000000)">
                    <rect id="Rectangle" stroke-opacity="0.2" stroke="#424242" fill="#FFFFFF" x="0.5" y="0.5" width="94" height="69" rx="8"></rect>
                    <g id="lv4:-SNS-/-WeChat" transform="translate(34.000000, 11.000000)">
                        <g id="WeChat">
                            <rect id="Rectangle" stroke="#979797" stroke-width="1.2" fill="#D8D8D8" opacity="0" x="0.6" y="0.6" width="26.8" height="26.8"></rect>
                            <g id="icons8-weixing" transform="translate(1.333333, 2.500000)" fill="#2DC100">
                                <path d="M10.8333333,0 C4.85983333,0 0,4.0489237 0,9.02592485 C0,10.7132419 0.553989583,12.3420401 1.60807292,13.7649506 L0.977539117,18.5993782 L5.33414711,16.8053928 C6.73374693,17.4926724 8.3000905,17.8874207 9.93619792,18 C10.7377411,21.1264195 14.0666424,23.3612172 17.875,23.3612172 C19.4485135,23.3612172 20.8782243,22.9243954 22.132162,22.2661602 L25.2827152,24 L24.8024086,19.9993087 C25.5166665,18.9906329 26,17.8241723 26,16.546146 C26,13.8235118 24.1367262,11.5616958 21.5079757,10.4590389 C21.6026135,9.97981962 21.6666667,9.50086264 21.6666667,9.02592485 C21.6666667,4.0489237 16.8068333,0 10.8333333,0 Z M7.109375,5.49187707 C7.95220833,5.49187707 8.6328125,6.1590489 8.6328125,6.98306285 C8.6328125,7.8070767 7.951125,8.47839632 7.109375,8.47839632 C6.267625,8.47839632 5.5859375,7.80920044 5.5859375,6.98306285 C5.5859375,6.1590489 6.267625,5.49187707 7.109375,5.49187707 Z M15.4205729,5.49187707 C16.2623229,5.49187707 16.9440104,6.1590489 16.9440104,6.98306285 C16.9440104,7.80920044 16.2623229,8.47839632 15.4205729,8.47839632 C14.5766563,8.47839632 13.8971354,7.80920044 13.8971354,6.98306285 C13.8971354,6.15798703 14.5788229,5.49187707 15.4205729,5.49187707 Z M17.875,11.8568966 C21.2763146,11.8568966 23.8333333,14.057535 23.8333333,16.546146 C23.8333333,17.4894125 23.4841685,18.3629255 22.8494468,19.1199447 L22.5574548,19.468372 L22.6103518,19.9163499 L22.6336262,20.1071558 L22.1533206,19.8437612 L21.6031898,20.1921885 C20.5913359,20.8362806 19.2978468,21.2374702 17.875,21.2374702 C14.4736854,21.2374702 11.9166667,19.034758 11.9166667,16.546146 C11.9166667,14.0588273 14.4738869,11.8568966 17.875,11.8568966 Z M15.1518553,14.26063 C14.5126887,14.26063 13.9986979,14.7665628 13.9986979,15.3909444 C13.9986979,16.015326 14.513772,16.5233327 15.1518553,16.5233327 C15.787772,16.5233327 16.3060452,16.015326 16.3071285,15.3909444 C16.3071285,14.7665628 15.7888553,14.26063 15.1518553,14.26063 Z M20.6193033,14.26063 C19.9833866,14.26063 19.4661458,14.7665628 19.4661458,15.3909444 C19.4661458,16.015326 19.9823033,16.5233327 20.6193033,16.5233327 C21.2573866,16.5233327 21.7766922,16.015326 21.7766922,15.3909444 C21.7766922,14.7665628 21.2573866,14.26063 20.6193033,14.26063 Z" id="Shape"></path>
                            </g>
                        </g>
                    </g>
                    <text id="WeChat" font-family="Helvetica" font-size="13" font-weight="normal" fill="#424242">
                        <tspan x="24.0200195" y="55">WeChat</tspan>
                    </text>
                </g>
            </g>
        </g>
    </g>
</svg>