<?xml version="1.0" encoding="UTF-8"?>
<svg width="60px" height="84px" viewBox="0 0 60 84" version="1.1" xmlns="http://www.w3.org/2000/svg" xmlns:xlink="http://www.w3.org/1999/xlink">
    <!-- Generator: Sketch 57.1 (83088) - https://sketch.com -->
    <title>Group 8</title>
    <desc>Created with Sketch.</desc>
    <g id="🚗-General" stroke="none" stroke-width="1" fill="none" fill-rule="evenodd">
        <g id="Top---Contact" transform="translate(-691.000000, -238.000000)">
            <g id="Group-8" transform="translate(688.000000, 233.000000)">
                <text id="WeChat" opacity="0.749255952" font-family="Helvetica" font-size="15" font-weight="normal" fill="#000000">
                    <tspan x="5.40771484" y="88">WeChat</tspan>
                </text>
                <g id="lv4:-SNS-/-WeChat">
                    <g id="WeChat">
                        <rect id="Rectangle" stroke="#979797" stroke-width="1.2" fill="#D8D8D8" opacity="0" x="0.6" y="0.6" width="62.8" height="62.8"></rect>
                        <g id="icons8-weixing" transform="translate(3.047619, 5.714286)" fill="#2DC100">
                            <path d="M24.7619048,0 C11.1081905,0 0,9.25468274 0,20.6306854 C0,24.48741 1.2662619,28.2103773 3.67559524,31.4627442 L2.23437512,42.5128645 L12.1923362,38.4123265 C15.3914216,39.9832512 18.9716354,40.885533 22.7113095,41.1428584 C24.5434082,48.2889588 32.1523255,53.397068 40.8571429,53.397068 C44.4537451,53.397068 47.7216554,52.3986181 50.5877989,50.8940804 L57.7890634,54.8571429 L56.6912196,45.7127056 C58.3238091,43.407161 59.4285714,40.7409653 59.4285714,37.8197622 C59.4285714,31.5965985 55.16966,26.4267332 49.1610872,23.9063746 C49.3774023,22.8110163 49.5238095,21.7162575 49.5238095,20.6306854 C49.5238095,9.25468274 38.415619,0 24.7619048,0 Z M16.25,12.5528619 C18.1764762,12.5528619 19.7321429,14.0778261 19.7321429,15.9612865 C19.7321429,17.8447467 18.174,19.3791916 16.25,19.3791916 C14.326,19.3791916 12.7678571,17.849601 12.7678571,15.9612865 C12.7678571,14.0778261 14.326,12.5528619 16.25,12.5528619 Z M35.2470238,12.5528619 C37.1710238,12.5528619 38.7291667,14.0778261 38.7291667,15.9612865 C38.7291667,17.849601 37.1710238,19.3791916 35.2470238,19.3791916 C33.3180714,19.3791916 31.764881,17.849601 31.764881,15.9612865 C31.764881,14.0753989 33.3230238,12.5528619 35.2470238,12.5528619 Z M40.8571429,27.101478 C48.6315762,27.101478 54.4761905,32.1315085 54.4761905,37.8197622 C54.4761905,39.9757999 53.6780994,41.9724012 52.2273069,43.7027308 L51.5598968,44.4991359 L51.6808042,45.5230854 L51.7340027,45.9592132 L50.6361613,45.3571686 L49.3787196,46.1535737 C47.0659107,47.6257842 44.109364,48.5427891 40.8571429,48.5427891 C33.0827095,48.5427891 27.2380952,43.5080184 27.2380952,37.8197622 C27.2380952,32.1344623 33.0831701,27.101478 40.8571429,27.101478 Z M34.6328122,32.5957256 C33.1718598,32.5957256 31.9970238,33.7521435 31.9970238,35.1793015 C31.9970238,36.6064595 33.174336,37.7676176 34.6328122,37.7676176 C36.086336,37.7676176 37.2709604,36.6064595 37.2734366,35.1793015 C37.2734366,33.7521435 36.0888122,32.5957256 34.6328122,32.5957256 Z M47.129836,32.5957256 C45.6763122,32.5957256 44.4940476,33.7521435 44.4940476,35.1793015 C44.4940476,36.6064595 45.673836,37.7676176 47.129836,37.7676176 C48.5883122,37.7676176 49.7752964,36.6064595 49.7752964,35.1793015 C49.7752964,33.7521435 48.5883122,32.5957256 47.129836,32.5957256 Z" id="Shape"></path>
                        </g>
                    </g>
                </g>
            </g>
        </g>
    </g>
</svg>