<?xml version="1.0" encoding="UTF-8"?>
<svg width="97px" height="72px" viewBox="0 0 97 72" version="1.1" xmlns="http://www.w3.org/2000/svg" xmlns:xlink="http://www.w3.org/1999/xlink">
    <!-- Generator: Sketch 57.1 (83088) - https://sketch.com -->
    <title>Group</title>
    <desc>Created with Sketch.</desc>
    <g id="🚗-General" stroke="none" stroke-width="1" fill="none" fill-rule="evenodd">
        <g id="top/form---contact" transform="translate(-33.000000, -266.000000)">
            <g id="Group-3" transform="translate(15.717333, 181.000000)">
                <g id="Group" transform="translate(18.282667, 86.000000)">
                    <rect id="Rectangle" stroke-opacity="0.2" stroke="#424242" fill="#FFFFFF" x="0" y="0" width="95" height="70" rx="8"></rect>
                    <g id="lv4:-SNS-/-LINE" transform="translate(33.000000, 11.000000)">
                        <g id="LINE">
                            <g id="Group">
                                <rect id="Rectangle" stroke="#979797" stroke-width="1.2" fill="#D8D8D8" opacity="0" x="0.6" y="0.6" width="26.8" height="26.8"></rect>
                                <g id="icons8-line_me_filled" transform="translate(2.333333, 3.500000)" fill="#2DC100" fill-rule="nonzero">
                                    <path d="M11.6666667,0 C18.0988889,0 23.3333333,4.09641452 23.3333333,9.13359843 C23.3333333,11.1438858 22.5238977,12.9642751 20.8283421,14.7528958 C19.607231,16.1134705 17.6248699,17.6111537 15.7970921,18.8494296 C13.9693143,20.0724181 12.2888889,21.0351034 11.6666667,21.2873448 C11.4177778,21.3867126 11.2311111,21.4321566 11.0833333,21.4321566 C10.57,21.4321566 10.6160592,20.8984131 10.6549481,20.6767464 C10.6860592,20.5085855 10.826606,19.7123298 10.826606,19.712329 C10.8654949,19.4295137 10.9037763,18.9799691 10.7871097,18.6971538 C10.6548874,18.383763 10.1337149,18.2227076 9.75260378,18.1462708 C4.15260456,17.4277651 0,13.6433685 0,9.13359843 C0,4.09641452 5.23444444,0 11.6666667,0 Z M10.8828129,6.11344972 C10.4909614,6.1205935 10.1111111,6.41447917 10.1111111,6.87931034 L10.1111111,11.4655172 C10.1111111,11.8874483 10.4595556,12.2298851 10.8888889,12.2298851 C11.3182222,12.2298851 11.6666667,11.8874483 11.6666667,11.4655172 L11.6666667,9.26497415 L13.3665366,11.9089102 C13.8067588,12.5142895 14.7777778,12.2092471 14.7777778,11.4655172 L14.7777778,6.87931034 C14.7777778,6.45737931 14.4293333,6.11494253 14,6.11494253 C13.5706667,6.11494253 13.2222222,6.45737931 13.2222222,6.87931034 L13.2222222,9.17241379 L11.5223523,6.43591739 C11.357269,6.20890015 11.1179234,6.10916314 10.8828129,6.11344972 Z M3.88888889,6.11494253 C3.45955556,6.11494253 3.11111111,6.45737931 3.11111111,6.87931034 L3.11111111,11.4655172 C3.11111111,11.8874483 3.45955556,12.2298851 3.88888889,12.2298851 L6.22222222,12.2298851 C6.65155556,12.2298851 7,11.8874483 7,11.4655172 C7,11.0435862 6.65155556,10.7011494 6.22222222,10.7011494 L4.66666667,10.7011494 L4.66666667,6.87931034 C4.66666667,6.45737931 4.31822222,6.11494253 3.88888889,6.11494253 Z M8.55555556,6.11494253 C8.12622222,6.11494253 7.77777778,6.45737931 7.77777778,6.87931034 L7.77777778,11.4655172 C7.77777778,11.8874483 8.12622222,12.2298851 8.55555556,12.2298851 C8.98488889,12.2298851 9.33333333,11.8874483 9.33333333,11.4655172 L9.33333333,6.87931034 C9.33333333,6.45737931 8.98488889,6.11494253 8.55555556,6.11494253 Z M16.3333333,6.11494253 C15.904,6.11494253 15.5555556,6.45737931 15.5555556,6.87931034 L15.5555556,11.4655172 C15.5555556,11.8874483 15.904,12.2298851 16.3333333,12.2298851 L18.6666667,12.2298851 C19.096,12.2298851 19.4444444,11.8874483 19.4444444,11.4655172 C19.4444444,11.0435862 19.096,10.7011494 18.6666667,10.7011494 L17.1111111,10.7011494 L17.1111111,9.93678161 L18.6666667,9.93678161 C19.0967778,9.93678161 19.4444444,9.59434483 19.4444444,9.17241379 C19.4444444,8.75048276 19.0967778,8.40804598 18.6666667,8.40804598 L17.1111111,8.40804598 L17.1111111,7.64367816 L18.6666667,7.64367816 C19.096,7.64367816 19.4444444,7.30124138 19.4444444,6.87931034 C19.4444444,6.45737931 19.096,6.11494253 18.6666667,6.11494253 L16.3333333,6.11494253 Z" id="Shape"></path>
                                </g>
                            </g>
                        </g>
                    </g>
                    <text id="LINE" font-family="Helvetica" font-size="13" font-weight="normal" fill="#424242">
                        <tspan x="33.0495605" y="55">LINE</tspan>
                    </text>
                </g>
            </g>
        </g>
    </g>
</svg>