<?xml version="1.0" encoding="UTF-8"?>
<svg width="70px" height="86px" viewBox="0 0 70 86" version="1.1" xmlns="http://www.w3.org/2000/svg" xmlns:xlink="http://www.w3.org/1999/xlink">
    <!-- Generator: Sketch 57.1 (83088) - https://sketch.com -->
    <title>Group 8</title>
    <desc>Created with Sketch.</desc>
    <g id="🚗-General" stroke="none" stroke-width="1" fill="none" fill-rule="evenodd">
        <g id="Top---Contact" transform="translate(-575.000000, -238.000000)">
            <g id="Group-8" transform="translate(575.000000, 233.000000)">
                <text id="WhatsApp" opacity="0.749255952" font-family="Helvetica" font-size="15" font-weight="normal" fill="#000000">
                    <tspan x="0.900390625" y="88">WhatsApp</tspan>
                </text>
                <g id="lv4:-SNS-/-WhatsApp" transform="translate(3.000000, 0.000000)">
                    <g id="WhatsApp">
                        <rect id="Rectangle" stroke="#979797" stroke-width="1.2" fill="#D8D8D8" opacity="0" x="0.6" y="0.6" width="62.8" height="62.8"></rect>
                        <path d="M50.896209,13.0838486 C45.882641,8.08853937 39.215143,5.33614102 32.1112926,5.33333333 C17.4744712,5.33333333 5.56185062,17.1881129 5.55599306,31.7595827 C5.55411285,36.4173934 6.77689728,40.9640485 9.10068666,44.9716995 L5.33333333,58.6666667 L19.410649,54.9916908 C23.2893683,57.097025 27.656218,58.2065658 32.1007345,58.2084376 L32.1116542,58.2084376 C46.7470293,58.2084376 58.6607346,46.3522182 58.6666667,31.7806044 C58.6694848,24.7191245 55.9099216,18.0791579 50.896209,13.0838486 Z M32.1116542,53.7450052 L32.1026148,53.7450052 C28.1421065,53.7434934 24.2576019,52.684635 20.8688207,50.6832572 L20.062791,50.2072461 L11.7091102,52.3880999 L13.9388894,44.282376 L13.4139504,43.4513003 C11.2045643,39.9540007 10.0376799,35.9116496 10.0394135,31.7613105 C10.0441883,19.6501674 19.9455675,9.79683766 32.1201874,9.79683766 C38.0154272,9.79906941 43.5571883,12.0869753 47.7243746,16.2388263 C51.8915609,20.3906772 54.1851947,25.9096563 54.1830267,31.7789485 C54.1782524,43.8910995 44.2769455,53.7450052 32.1116542,53.7450052 L32.1116542,53.7450052 Z M44.2183698,37.2937521 C43.5547296,36.9632368 40.2926454,35.3656622 39.6843989,35.1452947 C39.0762247,34.9248552 38.6339425,34.8147074 38.1914434,35.475882 C37.7492335,36.1369126 36.477636,37.6243394 36.0904583,38.0650025 C35.7034253,38.5057375 35.3163922,38.5608834 34.6528966,38.2302961 C33.9893287,37.8997808 31.8513904,37.2024663 29.317018,34.9527881 C27.3446101,33.2020145 26.012846,31.0393747 25.625813,30.3782001 C25.2387799,29.7170975 25.5846654,29.3598012 25.9168109,29.0305098 C26.2152574,28.7346946 26.5803065,28.2592594 26.9120905,27.8736702 C27.2438021,27.488153 27.354445,27.2125676 27.5755861,26.7719046 C27.7967995,26.3311695 27.6861566,25.9455084 27.5202646,25.6149931 C27.354445,25.2844778 26.0273815,22.0341827 25.4744564,20.7120495 C24.9359222,19.4244005 24.3887824,19.5986212 23.9815009,19.5783914 C23.5949017,19.5592415 23.1521133,19.55521 22.7098311,19.55521 C22.267549,19.55521 21.5486596,19.7204316 20.9404854,20.3815342 C20.3323113,21.0426368 18.6182147,22.6402114 18.6182147,25.8904345 C18.6182147,29.1406575 20.9957346,32.2807328 21.3275185,32.7213959 C21.6593025,33.1621309 26.0062653,39.8321182 32.6623375,42.6924326 C34.2454705,43.3727571 35.4813441,43.7790799 36.4450217,44.0834621 C38.0345185,44.5858943 39.4809751,44.5150542 40.624357,44.3450811 C41.8991363,44.1555261 44.5499369,42.7476505 45.1030065,41.2051498 C45.6559316,39.6625771 45.6559316,38.3405159 45.4900396,38.0650745 C45.3241476,37.7896331 44.8818654,37.6243394 44.2183698,37.2937521 L44.2183698,37.2937521 Z" id="Shape" fill="#2DC100"></path>
                    </g>
                </g>
            </g>
        </g>
    </g>
</svg>