<?xml version="1.0" encoding="UTF-8"?>
<svg width="54px" height="80px" viewBox="0 0 54 80" version="1.1" xmlns="http://www.w3.org/2000/svg" xmlns:xlink="http://www.w3.org/1999/xlink">
    <!-- Generator: Sketch 57.1 (83088) - https://sketch.com -->
    <title>Group 8</title>
    <desc>Created with Sketch.</desc>
    <g id="🚗-General" stroke="none" stroke-width="1" fill="none" fill-rule="evenodd">
        <g id="Top---Contact" transform="translate(-473.000000, -241.000000)">
            <g id="Group-8" transform="translate(468.000000, 233.000000)">
                <text id="LINE" opacity="0.749255952" font-family="Helvetica" font-size="15" font-weight="normal" fill="#000000">
                    <tspan x="20.8288574" y="88">LINE</tspan>
                </text>
                <g id="lv4:-SNS-/-LINE">
                    <g id="LINE">
                        <g id="Group">
                            <rect id="Rectangle" stroke="#979797" stroke-width="1.2" fill="#D8D8D8" opacity="0" x="0.6" y="0.6" width="62.8" height="62.8"></rect>
                            <g id="icons8-line_me_filled" transform="translate(5.333333, 8.000000)" fill="#2DC100" fill-rule="nonzero">
                                <path d="M26.6666667,0 C41.3688889,0 53.3333333,9.3632332 53.3333333,20.8767964 C53.3333333,25.4717389 51.4831947,29.6326289 47.6076391,33.7209047 C44.816528,36.8307898 40.2854169,40.2540657 36.1076391,43.0844105 C31.9298613,45.8798128 28.0888889,48.0802364 26.6666667,48.6567881 C26.0977778,48.8839146 25.6711111,48.9877865 25.3333333,48.9877865 C24.16,48.9877865 24.2652782,47.7678013 24.3541671,47.2611346 C24.4252782,46.8767668 24.746528,45.0567537 24.746528,45.056752 C24.8354169,44.410317 24.9229173,43.3827865 24.6562507,42.7363514 C24.3540284,42.0200296 23.1627769,41.6519031 22.2916658,41.4771904 C9.49166756,39.8348916 0,31.1848424 0,20.8767964 C0,9.3632332 11.9644444,0 26.6666667,0 Z M24.8750009,13.9735994 C23.9793404,13.989928 23.1111111,14.6616667 23.1111111,15.7241379 L23.1111111,26.2068966 C23.1111111,27.1713103 23.9075556,27.954023 24.8888889,27.954023 C25.8702222,27.954023 26.6666667,27.1713103 26.6666667,26.2068966 L26.6666667,21.1770838 L30.5520836,27.2203662 C31.5583058,28.6040903 33.7777778,27.9068506 33.7777778,26.2068966 L33.7777778,15.7241379 C33.7777778,14.7597241 32.9813333,13.9770115 32,13.9770115 C31.0186667,13.9770115 30.2222222,14.7597241 30.2222222,15.7241379 L30.2222222,20.9655172 L26.3368053,14.7106683 C25.959472,14.1917718 25.4123964,13.9638015 24.8750009,13.9735994 Z M8.88888889,13.9770115 C7.90755556,13.9770115 7.11111111,14.7597241 7.11111111,15.7241379 L7.11111111,26.2068966 C7.11111111,27.1713103 7.90755556,27.954023 8.88888889,27.954023 L14.2222222,27.954023 C15.2035556,27.954023 16,27.1713103 16,26.2068966 C16,25.2424828 15.2035556,24.4597701 14.2222222,24.4597701 L10.6666667,24.4597701 L10.6666667,15.7241379 C10.6666667,14.7597241 9.87022222,13.9770115 8.88888889,13.9770115 Z M19.5555556,13.9770115 C18.5742222,13.9770115 17.7777778,14.7597241 17.7777778,15.7241379 L17.7777778,26.2068966 C17.7777778,27.1713103 18.5742222,27.954023 19.5555556,27.954023 C20.5368889,27.954023 21.3333333,27.1713103 21.3333333,26.2068966 L21.3333333,15.7241379 C21.3333333,14.7597241 20.5368889,13.9770115 19.5555556,13.9770115 Z M37.3333333,13.9770115 C36.352,13.9770115 35.5555556,14.7597241 35.5555556,15.7241379 L35.5555556,26.2068966 C35.5555556,27.1713103 36.352,27.954023 37.3333333,27.954023 L42.6666667,27.954023 C43.648,27.954023 44.4444444,27.1713103 44.4444444,26.2068966 C44.4444444,25.2424828 43.648,24.4597701 42.6666667,24.4597701 L39.1111111,24.4597701 L39.1111111,22.7126437 L42.6666667,22.7126437 C43.6497778,22.7126437 44.4444444,21.929931 44.4444444,20.9655172 C44.4444444,20.0011034 43.6497778,19.2183908 42.6666667,19.2183908 L39.1111111,19.2183908 L39.1111111,17.4712644 L42.6666667,17.4712644 C43.648,17.4712644 44.4444444,16.6885517 44.4444444,15.7241379 C44.4444444,14.7597241 43.648,13.9770115 42.6666667,13.9770115 L37.3333333,13.9770115 Z" id="Shape"></path>
                            </g>
                        </g>
                    </g>
                </g>
            </g>
        </g>
    </g>
</svg>