<?xml version="1.0" encoding="UTF-8"?>
<svg width="81px" height="113px" viewBox="0 0 81 113" version="1.1" xmlns="http://www.w3.org/2000/svg" xmlns:xlink="http://www.w3.org/1999/xlink">
    <!-- Generator: Sketch 57.1 (83088) - https://sketch.com -->
    <title>Group</title>
    <desc>Created with Sketch.</desc>
    <g id="✅-Form" stroke="none" stroke-width="1" fill="none" fill-rule="evenodd">
        <g id="form---luggage---about" transform="translate(-353.000000, -194.000000)">
            <g id="Group" transform="translate(354.000000, 195.000000)">
                <circle id="Oval" stroke="#83CBC5" stroke-width="0.595" fill-opacity="0.6953125" fill="#FFFFFF" cx="13.6" cy="13.6" r="13.6"></circle>
                <text id="~160-cm" font-family="Helvetica" font-size="8.33" font-weight="normal" line-spacing="6.90200023" fill="#4EB5AC">
                    <tspan x="4.025" y="13.95">~160</tspan>
                    <tspan x="7.85444092" y="20.8520002">cm</tspan>
                </text>
                <g id="スーツケース" transform="translate(13.600000, 2.550000)">
                    <ellipse id="Oval" stroke="#68C0B8" stroke-width="1.3447" fill="#68C0B8" cx="7.23840445" cy="92.9089306" rx="2.73450835" ry="2.73550314"></ellipse>
                    <ellipse id="Oval" stroke="#68C0B8" stroke-width="1.3447" fill="#68C0B8" cx="39.1946197" cy="97.8435637" rx="2.73450835" ry="2.73550314"></ellipse>
                    <ellipse id="Oval" stroke="#68C0B8" stroke-width="1.3447" fill="#68C0B8" cx="52.1347532" cy="90.5289306" rx="2.73450835" ry="2.73550314"></ellipse>
                    <path d="M25.0548491,16.5403737 L25.0548491,2.74828238 C25.1401426,0.916094127 25.9070692,0 27.3556287,0 L41.0967656,1.96275207 C42.8311559,2.52251579 43.698351,3.39709291 43.698351,4.58648344 L43.698351,19.0450803 L43.698351,20.4789881 L41.0967656,20.4789881 L41.0967656,5.99949313 C41.4006235,4.87435885 41.083635,4.21008682 40.1458,4.00667703 L28.2719663,2.27431785 C27.4099708,2.12993488 26.978973,2.38256566 26.978973,3.03221021 L26.978973,17.6513507 L25.0548491,17.6513507 L25.0548491,16.5403737 Z" id="Path-34" stroke="#68C0B8" stroke-width="0.7735" fill="#68C0B8"></path>
                    <path d="M10.6054716,19.0442099 C10.8369886,19.0456489 11.068101,19.0637686 11.2970133,19.0984282 L47.8040382,24.6259586 C50.160298,24.98272 51.9020408,27.0080318 51.9020408,29.3911471 L51.9020408,88.821237 C51.9020408,89.9901252 51.4859196,91.0618232 50.7937342,91.896274 L50.8447058,91.9216083 L50.6422602,92.0702795 C50.2026485,92.551656 49.6666994,92.9435513 49.0649176,93.2154607 L44.0556413,96.8541549 L42.9794642,93.2660803 L9.72977911,90.0489744 C7.24794191,89.8088306 5.35904358,87.7153031 5.37454154,85.221923 L5.73246419,27.4820803 L1.32446419,24.5393881 L7.08424843,20.5411523 C7.96910904,19.6116926 9.22092245,19.035604 10.6054716,19.0442099 Z" id="中" fill="#B9E2DE"></path>
                    <path d="M16.4729434,15.074731 C16.7292396,15.074731 16.9851273,15.0951753 17.2381721,15.1358694 L53.7104894,21.001263 C56.0468176,21.3769859 57.7647607,23.3932778 57.7647607,25.7596246 L57.7647607,84.8212659 C57.7647607,86.8696292 56.4868875,88.6195292 54.6848549,89.3172521 L43.698351,97.3447972 L43.6975052,88.9010538 L16.0805294,86.645216 C13.5792794,86.4408804 11.6534434,84.3513007 11.6534434,81.8417182 L11.6525052,27.6340538 L2.38350515,24.1261267 L13.1140343,16.438028 C13.9820485,15.5942987 15.1668202,15.074731 16.4729434,15.074731 Z" id="奥" fill="#83CBC5"></path>
                    <path d="M5.60423244,22.8682075 L42.5407315,28.9637169 C44.8681219,29.3477985 46.575499,31.3600316 46.575499,33.718901 L46.575499,92.5599295 C46.575499,95.2216658 44.4177354,97.3794295 41.755999,97.3794295 C41.4999478,97.3794295 41.2443038,97.3590242 40.9914946,97.3184075 L4.05499559,91.3841326 C1.71833605,91.0087213 -1.97497086e-15,88.9922791 0,86.6256546 L0,27.6233916 C-1.21414711e-15,24.9616552 2.15776365,22.8038916 4.8195,22.8038916 C5.08239383,22.8038916 5.34484692,22.825402 5.60423244,22.8682075 Z" id="前" fill="#A7DAD6"></path>
                    <path d="M45.1300819,58.3982593 C45.0710446,57.2016167 45.2911607,56.6032386 45.7904302,56.603125 L57.6037209,58.395421 C58.0094278,58.5352412 58.2122813,58.7972319 58.2122813,59.181393 L58.2119994,60.4218499" id="Path-36" stroke="#56B8B0" stroke-width="1.4875" transform="translate(51.666500, 58.512487) rotate(81.000000) translate(-51.666500, -58.512487) "></path>
                    <g id="線" transform="translate(10.129897, 39.865000)" stroke="#CAE9E6" stroke-linecap="round" stroke-width="1.785">
                        <path d="M0.438892183,0.238 L0.438892183,35.462" id="Line-16"></path>
                        <path d="M12.356418,2.02696667 L12.356418,37.8380333" id="Line-16"></path>
                        <path d="M24.2739437,4.998 L24.2739437,40.222" id="Line-16"></path>
                    </g>
                    <path d="M46.3498012,31.134097 L57.2096044,23.101597 C56.2971693,21.6850203 55.1249051,20.9767319 53.6928119,20.9767319 L16.8310842,15.069097 C14.8375297,15.085071 13.4603826,15.3555125 12.6996427,15.8804214 L2.66900188,23.101597 L43.3348988,29.7805269 C44.1046114,30.0184392 44.6661826,30.2167332 45.0196126,30.3754091 C45.3730425,30.5340849 45.8164387,30.7869809 46.3498012,31.134097 Z" id="Path-37" fill="#CAE9E6"></path>
                    <path d="M23.2486349,22.617409 C23.1892405,21.4224697 23.4095366,20.825 23.9095234,20.825 L35.7401943,22.617409 C36.1466033,22.7571208 36.3498079,23.0187817 36.3498079,23.4023917 L36.3498079,24.641069" id="Path-36" stroke="#83CBC5" stroke-width="1.4875"></path>
                </g>
                <g id="幅→" transform="translate(11.900000, 101.150000)" stroke="#979797" stroke-width="0.595">
                    <path d="M0.593975904,2.00361705 L47.3910672,9.1770011" id="Line-22" stroke-linecap="square"></path>
                    <polygon id="Path-43" fill="#A2A2A2" transform="translate(2.670940, 2.440751) rotate(-4.000000) translate(-2.670940, -2.440751) " points="0.592876703 1.44258176 3.69895633 4.29695483 3.18922129 2.00446456 4.74900421 0.584547607"></polygon>
                    <polygon id="Path-43" fill="#A2A2A2" transform="translate(46.628605, 8.511254) scale(-1, -1) rotate(-3.000000) translate(-46.628605, -8.511254) " points="44.5502895 7.51444148 47.6554546 10.3675638 47.1465432 8.07536051 48.7069206 6.65494329"></polygon>
                </g>
                <g id="奥行き→" transform="translate(61.200000, 93.500000)" stroke="#979797" stroke-width="0.595">
                    <path d="M1.26455582,14.3681163 L16.4116647,3.10111271" id="Line" stroke-linecap="square"></path>
                    <polygon id="Path-43" fill="#A2A2A2" transform="translate(15.489609, 3.129616) scale(-1, -1) rotate(-52.000000) translate(-15.489609, -3.129616) " points="13.4093993 2.16397287 16.4733522 5.01792581 15.9941867 2.70051857 17.5698191 1.24130628"></polygon>
                    <polygon id="Path-43" fill="#A2A2A2" transform="translate(3.210391, 13.250850) rotate(-52.000000) translate(-3.210391, -13.250850) " points="1.13018087 12.2852064 4.19413372 15.1391594 3.71496825 12.8217521 5.29060066 11.3625398"></polygon>
                </g>
                <g id="縦→" transform="translate(2.550000, 25.500000)" stroke="#979797" stroke-width="0.595">
                    <path d="M2.40724851,2.66785714 L2.40724851,68.8849159" id="Line-35" stroke-linecap="square"></path>
                    <polygon id="Path-43" fill="#A2A2A2" transform="translate(2.240179, 3.075973) scale(-1, -1) rotate(-105.000000) translate(-2.240179, -3.075973) " points="0.176183265 2.06562523 3.29542677 4.88492392 2.76569014 2.6396688 4.30417524 1.26702247"></polygon>
                    <polygon id="Path-43" fill="#A2A2A2" transform="translate(2.705429, 67.833027) rotate(-105.000000) translate(-2.705429, -67.833027) " points="0.641432881 66.8226788 3.76067638 69.6419775 3.23093975 67.3967224 4.76942485 66.024076"></polygon>
                </g>
            </g>
        </g>
    </g>
</svg>