<?xml version="1.0" encoding="UTF-8"?>
<svg width="22px" height="23px" viewBox="0 0 22 23" version="1.1" xmlns="http://www.w3.org/2000/svg" xmlns:xlink="http://www.w3.org/1999/xlink">
    <!-- Generator: Sketch 57.1 (83088) - https://sketch.com -->
    <title>Messanger</title>
    <desc>Created with Sketch.</desc>
    <g id="Symbols" stroke="none" stroke-width="1" fill="none" fill-rule="evenodd">
        <g id="SNSタブ" transform="translate(-13.000000, -159.000000)">
            <g id="Messanger" transform="translate(10.000000, 156.000000)">
                <rect id="Rectangle" stroke="#979797" stroke-width="1.2" fill="#D8D8D8" opacity="0" x="0.6" y="0.6" width="26.8" height="26.8"></rect>
                <path d="M14,3.5 C8.2103,3.5 3.5,7.99439088 3.5,13.5179994 C3.5,16.2017687 4.6424,18.7779763 6.65,20.6592511 L6.65,25.2422222 L10.934,23.0920432 C11.94095,23.386256 12.971,23.5359987 14,23.5359987 C19.7897,23.5359987 24.5,19.0416079 24.5,13.5179994 C24.5,7.99439088 19.7897,3.5 14,3.5 Z M15.22535,16.5940524 L12.1625,14.1338427 L6.65,16.5940524 L12.77465,10.4430008 L15.8375,12.9032106 L21.35,10.4419463 L15.22535,16.5940524 Z" id="Shape" fill-opacity="0.302748033" fill="#000000" fill-rule="nonzero"></path>
            </g>
        </g>
    </g>
</svg>