<?xml version="1.0" encoding="UTF-8"?>
<svg width="20px" height="22px" viewBox="0 0 20 22" version="1.1" xmlns="http://www.w3.org/2000/svg" xmlns:xlink="http://www.w3.org/1999/xlink">
    <!-- Generator: Sketch 57.1 (83088) - https://sketch.com -->
    <title>Call</title>
    <desc>Created with Sketch.</desc>
    <g id="Symbols" stroke="none" stroke-width="1" fill="none" fill-rule="evenodd">
        <g id="SNSタブ" transform="translate(-14.000000, -203.000000)">
            <g id="Call" transform="translate(10.000000, 200.000000)">
                <g id="Group">
                    <rect id="Rectangle" stroke="#979797" stroke-width="1.2" fill="#D8D8D8" opacity="0" x="0.6" y="0.6" width="26.8" height="26.8"></rect>
                    <g id="icons8-phone" transform="translate(4.666667, 3.500000)" fill="#000000" fill-opacity="0.302748033" fill-rule="nonzero">
                        <path d="M16.9667971,14.5605471 C15.7396096,13.4909856 14.4907292,12.8410461 13.2790363,13.9106068 L12.5538804,14.5542366 C12.0239583,15.0243393 11.03849,17.2139423 7.22986959,12.7495491 C3.42125,8.29462119 5.68658874,7.60051062 6.21960957,7.13671915 L6.94786498,6.48993369 C8.15335957,5.420373 7.6978125,4.07316727 6.82700541,2.68494612 L6.30328165,1.84570292 C5.429375,0.463792269 4.47489583,-0.444861577 3.26630248,0.621544269 L2.61242207,1.20522877 C2.07630248,1.59960958 0.582604167,2.89002404 0.22002624,5.33834135 C-0.216926687,8.27569131 1.16210957,11.6421278 4.31375,15.3335337 C7.46229167,19.0280952 10.5488542,20.8832634 13.4680733,20.8517125 C15.8945571,20.8233173 17.3634637,19.4981971 17.8221096,19.015475 L18.47599,18.4317913 C19.6845833,17.3653846 18.9346358,16.2768932 17.7043488,15.2073317 L16.9667971,14.5605471 Z" id="Path"></path>
                    </g>
                </g>
            </g>
        </g>
    </g>
</svg>