<?xml version="1.0" encoding="UTF-8"?>
<svg width="24px" height="24px" viewBox="0 0 24 24" version="1.1" xmlns="http://www.w3.org/2000/svg" xmlns:xlink="http://www.w3.org/1999/xlink">
    <!-- Generator: Sketch 57.1 (83088) - https://sketch.com -->
    <title>WhatsApp</title>
    <desc>Created with Sketch.</desc>
    <g id="Symbols" stroke="none" stroke-width="1" fill="none" fill-rule="evenodd">
        <g id="SNSタブ" transform="translate(-12.000000, -70.000000)">
            <g id="WhatsApp" transform="translate(10.000000, 68.000000)">
                <rect id="Rectangle" stroke="#979797" stroke-width="1.2" fill="#D8D8D8" opacity="0" x="0.6" y="0.6" width="26.8" height="26.8"></rect>
                <path d="M22.2670914,5.72418378 C20.0736554,3.53873597 17.156625,2.3345617 14.0486905,2.33333333 C7.64508115,2.33333333 2.43330965,7.51979938 2.43074696,13.8948174 C2.42992437,15.9326096 2.96489256,17.9217712 3.98155042,19.6751185 L2.33333333,25.6666667 L8.49215893,24.0588647 C10.1890986,24.9799484 12.0995954,25.4653725 14.0440714,25.4661914 L14.0488487,25.4661914 C20.4518253,25.4661914 25.6640714,20.2790955 25.6666667,13.9040144 C25.6678996,10.814617 24.4605907,7.90963159 22.2670914,5.72418378 Z M14.0488487,23.5134398 L14.044894,23.5134398 C12.3121716,23.5127784 10.6127008,23.0495278 9.13010905,22.173925 L8.77747108,21.9656702 L5.12273573,22.9197937 L6.09826409,19.3735395 L5.86860332,19.0099439 C4.90199689,17.4798753 4.39148494,15.7113467 4.3922434,13.8955733 C4.39433236,8.59694826 8.72618576,4.28611648 14.052582,4.28611648 C16.6317494,4.28709287 19.0562699,5.28805171 20.8794139,7.1044865 C22.7025579,8.92092128 23.7060227,11.3354746 23.7050742,13.90329 C23.7029854,19.202356 19.3711636,23.5134398 14.0488487,23.5134398 L14.0488487,23.5134398 Z M19.3455368,16.3160166 C19.0551942,16.1714161 17.6280323,15.4724772 17.3619245,15.3760664 C17.0958483,15.2796241 16.9023498,15.2314345 16.7087565,15.5206984 C16.5152897,15.8098993 15.9589658,16.4606485 15.7895755,16.6534386 C15.6202486,16.8462602 15.4509216,16.8703865 15.1606423,16.7257546 C14.8703313,16.5811541 13.9349833,16.276079 12.8261954,15.2918448 C11.9632669,14.5258814 11.3806201,13.5797264 11.2112932,13.2904625 C11.0419662,13.0012302 11.1932911,12.844913 11.3386048,12.700848 C11.4691751,12.5714289 11.6288841,12.363426 11.7740396,12.1947307 C11.9191634,12.026067 11.9675697,11.9054983 12.0643189,11.7127083 C12.1610998,11.5198867 12.1126935,11.3511599 12.0401158,11.2065595 C11.9675697,11.061959 11.3869794,9.63995493 11.1450747,9.06152167 C10.9094659,8.49817523 10.6700923,8.57439676 10.4919067,8.56554625 C10.3227695,8.55716818 10.1290496,8.55540437 9.93555113,8.55540437 C9.74205267,8.55540437 9.42753858,8.62768885 9.16146238,8.91692123 C8.89538618,9.20615361 8.14546892,9.90509249 8.14546892,11.3270651 C8.14546892,12.7490377 9.18563387,14.1228206 9.33078935,14.3156107 C9.47594483,14.5084323 11.3777411,17.4265517 14.2897726,18.6779393 C14.9823934,18.9755812 15.523088,19.1533475 15.944697,19.2865147 C16.6401019,19.5063288 17.2729266,19.4753362 17.7731562,19.400973 C18.3308721,19.3180427 19.4905974,18.7020971 19.7325654,18.027253 C19.9744701,17.3523775 19.9744701,16.7739757 19.9018923,16.6534701 C19.8293146,16.5329645 19.6358161,16.4606485 19.3455368,16.3160166 L19.3455368,16.3160166 Z" id="Shape" fill-opacity="0.302748033" fill="#000000" fill-rule="nonzero"></path>
            </g>
        </g>
    </g>
</svg>