<?xml version="1.0" encoding="UTF-8"?>
<svg width="200px" height="200px" viewBox="0 0 200 200" version="1.1" xmlns="http://www.w3.org/2000/svg" xmlns:xlink="http://www.w3.org/1999/xlink">
    <!-- Generator: Sketch 57.1 (83088) - https://sketch.com -->
    <title>lv1: img / luggageType / 003</title>
    <desc>Created with Sketch.</desc>
    <defs>
        <polygon id="path-1" points="115.169192 10.9420075 64.5 45.1613336 1.29318778e-12 35.5028181 51.1966982 -4.26325641e-14"></polygon>
    </defs>
    <g id="lv1:-img-/-luggageType-/-003" stroke="none" stroke-width="1" fill="none" fill-rule="evenodd">
        <g id="lv4:-size/-~160" transform="translate(26.000000, 69.000000)">
            <g id="160cm">
                <g>
                    <circle id="Oval" stroke="#83CBC5" fill-opacity="0.701540647" fill="#FFFFFF" cx="23" cy="23" r="23"></circle>
                    <path d="M12.073,19.3090004 C12.3763348,19.3090004 12.6131658,19.2098347 12.7835,19.0115004 C12.9538342,18.8131661 13.0413333,18.5506687 13.046,18.2240004 L14.054,18.2240004 C14.054,18.5366686 14.0108338,18.8236657 13.9245,19.0850004 C13.8381662,19.346335 13.7145008,19.5703328 13.5535,19.7570004 C13.3924992,19.943668 13.1930012,20.0883332 12.955,20.1910004 C12.7169988,20.2936676 12.4486682,20.3450004 12.15,20.3450004 C11.9073321,20.3450004 11.6670012,20.3076674 11.429,20.2330004 C11.1909988,20.1583333 10.9611678,20.0755008 10.7395,19.9845004 C10.5178322,19.8934999 10.3066677,19.8095008 10.106,19.7325004 C9.90533233,19.6555 9.72100084,19.6170004 9.553,19.6170004 C9.24966515,19.6170004 9.01283418,19.7149994 8.8425,19.9110004 C8.67216581,20.1070014 8.58466669,20.3706654 8.58,20.7020004 L7.572,20.7020004 C7.572,20.3893322 7.61516623,20.102335 7.7015,19.8410004 C7.78783376,19.5796657 7.91149919,19.355668 8.0725,19.1690004 C8.2335008,18.9823328 8.43183215,18.8365009 8.6675,18.7315004 C8.90316784,18.6264999 9.17266515,18.5740004 9.476,18.5740004 C9.71866788,18.5740004 9.95899881,18.6125 10.197,18.6895004 C10.4350012,18.7665008 10.6648322,18.8504999 10.8865,18.9415004 C11.1081678,19.0325008 11.3193323,19.1165 11.52,19.1935004 C11.7206677,19.2705008 11.9049992,19.3090004 12.073,19.3090004 Z M16.889,22.6480004 L19.045,22.6480004 L19.045,15.8090004 C19.045,15.603666 19.0519999,15.3960014 19.066,15.1860004 L17.274,16.7190004 C17.2273331,16.7563339 17.1806669,16.783167 17.134,16.7995004 C17.0873331,16.8158338 17.0430002,16.8240004 17.001,16.8240004 C16.9309996,16.8240004 16.8680003,16.8088339 16.812,16.7785004 C16.7559997,16.7481669 16.7140001,16.7120006 16.686,16.6700004 L16.294,16.1310004 L19.276,13.5480004 L20.291,13.5480004 L20.291,22.6480004 L22.265,22.6480004 L22.265,23.6000004 L16.889,23.6000004 L16.889,22.6480004 Z M27.55,17.4540004 C27.9513353,17.4540004 28.3316649,17.5204997 28.691,17.6535004 C29.0503351,17.786501 29.365332,17.9801658 29.636,18.2345004 C29.906668,18.488835 30.1213325,18.8014985 30.28,19.1725004 C30.4386675,19.5435022 30.518,19.966998 30.518,20.4430004 C30.518,20.9050027 30.4340008,21.3343317 30.266,21.7310004 C30.0979992,22.127669 29.8635015,22.4729989 29.5625,22.7670004 C29.2614985,23.0610019 28.8986688,23.2919995 28.474,23.4600004 C28.0493312,23.6280012 27.5826692,23.7120004 27.074,23.7120004 C26.5699975,23.7120004 26.1138354,23.6315012 25.7055,23.4705004 C25.2971646,23.3094996 24.9483348,23.0808352 24.659,22.7845004 C24.3696652,22.4881656 24.1468341,22.1288358 23.9905,21.7065004 C23.8341659,21.2841649 23.756,20.8116697 23.756,20.2890004 C23.756,19.8503315 23.853999,19.3836695 24.05,18.8890004 C24.246001,18.3943312 24.5563312,17.8623366 24.981,17.2930004 L27.522,13.8700004 C27.5873337,13.786 27.6783328,13.714834 27.795,13.6565004 C27.9116673,13.5981668 28.0446659,13.5690004 28.194,13.5690004 L29.3,13.5690004 L25.821,17.9720004 C26.0590012,17.8086662 26.3226652,17.6815008 26.612,17.5905004 C26.9013348,17.4994999 27.2139983,17.4540004 27.55,17.4540004 Z M24.96,20.5060004 C24.96,20.828002 25.0066662,21.1219991 25.1,21.3880004 C25.1933338,21.6540017 25.3298324,21.8826661 25.5095,22.0740004 C25.6891676,22.2653347 25.9084987,22.4134999 26.1675,22.5185004 C26.4265013,22.6235009 26.721665,22.6760004 27.053,22.6760004 C27.3890017,22.6760004 27.692332,22.6223343 27.963,22.5150004 C28.233668,22.4076665 28.4658324,22.2583347 28.6595,22.0670004 C28.8531676,21.8756661 29.0024995,21.649335 29.1075,21.3880004 C29.2125005,21.1266657 29.265,20.8420019 29.265,20.5340004 C29.265,20.2073321 29.2136672,19.9121684 29.111,19.6485004 C29.0083328,19.3848324 28.8636676,19.1608346 28.677,18.9765004 C28.4903324,18.7921661 28.2663346,18.6510009 28.005,18.5530004 C27.7436654,18.4549999 27.4566682,18.4060004 27.144,18.4060004 C26.8079983,18.4060004 26.504668,18.4631665 26.234,18.5775004 C25.963332,18.6918343 25.7335009,18.8458327 25.5445,19.0395004 C25.3554991,19.233168 25.2108338,19.4571658 25.1105,19.7115004 C25.0101662,19.965835 24.96,20.2306657 24.96,20.5060004 Z M38.82,18.5880004 C38.82,19.4653381 38.7255009,20.2248305 38.5365,20.8665004 C38.3474991,21.5081703 38.0896683,22.0389983 37.763,22.4590004 C37.4363317,22.8790025 37.0501689,23.191666 36.6045,23.3970004 C36.1588311,23.6023347 35.6816692,23.7050004 35.173,23.7050004 C34.6596641,23.7050004 34.1825022,23.6023347 33.7415,23.3970004 C33.3004978,23.191666 32.9166683,22.8790025 32.59,22.4590004 C32.2633317,22.0389983 32.0066676,21.5081703 31.82,20.8665004 C31.6333324,20.2248305 31.54,19.4653381 31.54,18.5880004 C31.54,17.7106627 31.6333324,16.9500036 31.82,16.3060004 C32.0066676,15.6619972 32.2633317,15.1288358 32.59,14.7065004 C32.9166683,14.2841649 33.3004978,13.9703347 33.7415,13.7650004 C34.1825022,13.559666 34.6596641,13.4570004 35.173,13.4570004 C35.6816692,13.4570004 36.1588311,13.559666 36.6045,13.7650004 C37.0501689,13.9703347 37.4363317,14.2841649 37.763,14.7065004 C38.0896683,15.1288358 38.3474991,15.6619972 38.5365,16.3060004 C38.7255009,16.9500036 38.82,17.7106627 38.82,18.5880004 Z M37.525,18.5880004 C37.525,17.8226632 37.460834,17.1798363 37.3325,16.6595004 C37.204166,16.1391644 37.0315011,15.7203353 36.8145,15.4030004 C36.5974989,15.0856655 36.3466681,14.8581677 36.062,14.7205004 C35.7773319,14.582833 35.4810015,14.5140004 35.173,14.5140004 C34.8649985,14.5140004 34.5686681,14.582833 34.284,14.7205004 C33.9993319,14.8581677 33.7496677,15.0856655 33.535,15.4030004 C33.3203323,15.7203353 33.148834,16.1391644 33.0205,16.6595004 C32.892166,17.1798363 32.828,17.8226632 32.828,18.5880004 C32.828,19.3533375 32.892166,19.9949978 33.0205,20.5130004 C33.148834,21.031003 33.3203323,21.4486655 33.535,21.7660004 C33.7496677,22.0833353 33.9993319,22.310833 34.284,22.4485004 C34.5686681,22.5861677 34.8649985,22.6550004 35.173,22.6550004 C35.4810015,22.6550004 35.7773319,22.5861677 36.062,22.4485004 C36.3466681,22.310833 36.5974989,22.0833353 36.8145,21.7660004 C37.0315011,21.4486655 37.204166,21.031003 37.3325,20.5130004 C37.460834,19.9949978 37.525,19.3533375 37.525,18.5880004 Z M19.843,29.3690008 C19.8056665,29.4203344 19.7683335,29.4600006 19.731,29.4880008 C19.6936665,29.5160009 19.6400004,29.5300008 19.57,29.5300008 C19.4999996,29.5300008 19.4241671,29.5008344 19.3425,29.4425008 C19.2608329,29.3841671 19.1570006,29.3200011 19.031,29.2500008 C18.9049994,29.1800004 18.7521676,29.1158344 18.5725,29.0575008 C18.3928324,28.9991671 18.1723346,28.9700008 17.911,28.9700008 C17.5656649,28.9700008 17.2600013,29.0318335 16.994,29.1555008 C16.7279987,29.279168 16.5051676,29.4576663 16.3255,29.6910008 C16.1458324,29.9243353 16.0105005,30.2066658 15.9195,30.5380008 C15.8284995,30.8693358 15.783,31.240332 15.783,31.6510008 C15.783,32.0803362 15.8319995,32.4618324 15.93,32.7955008 C16.0280005,33.1291691 16.1656658,33.4091663 16.343,33.6355008 C16.5203342,33.8618352 16.7361654,34.0345002 16.9905,34.1535008 C17.2448346,34.2725014 17.5306651,34.3320008 17.848,34.3320008 C18.1513348,34.3320008 18.400999,34.2958345 18.597,34.2235008 C18.793001,34.1511671 18.9563327,34.0706679 19.087,33.9820008 C19.2176673,33.8933337 19.3249996,33.8128345 19.409,33.7405008 C19.4930004,33.6681671 19.5769996,33.6320008 19.661,33.6320008 C19.7683339,33.6320008 19.8476664,33.671667 19.899,33.7510008 L20.249,34.2060008 C19.9409985,34.5840027 19.5560023,34.8604999 19.094,35.0355008 C18.6319977,35.2105016 18.1443359,35.2980008 17.631,35.2980008 C17.1876644,35.2980008 16.7758352,35.2163349 16.3955,35.0530008 C16.0151648,34.8896666 15.6850014,34.6528356 15.405,34.3425008 C15.1249986,34.0321659 14.9045008,33.6506697 14.7435,33.1980008 C14.5824992,32.7453318 14.502,32.2296703 14.502,31.6510008 C14.502,31.1236648 14.5754993,30.636003 14.7225,30.1880008 C14.8695007,29.7399985 15.0841653,29.3538357 15.3665,29.0295008 C15.6488347,28.7051658 15.9976646,28.4520017 16.413,28.2700008 C16.8283354,28.0879999 17.3043307,27.9970008 17.841,27.9970008 C18.3356691,27.9970008 18.7743314,28.0775 19.157,28.2385008 C19.5396686,28.3995016 19.8779985,28.6269993 20.172,28.9210008 L19.843,29.3690008 Z M21.544,35.2000008 L21.544,28.1090008 L22.286,28.1090008 C22.4633342,28.1090008 22.5753331,28.1953332 22.622,28.3680008 L22.713,29.0960008 C22.9743346,28.7739992 23.267165,28.5103351 23.5915,28.3050008 C23.915835,28.0996664 24.2926645,27.9970008 24.722,27.9970008 C25.2026691,27.9970008 25.5911652,28.1299994 25.8875,28.3960008 C26.1838348,28.6620021 26.3973327,29.0213318 26.528,29.4740008 C26.6260005,29.2173328 26.7554992,28.9956684 26.9165,28.8090008 C27.0775008,28.6223332 27.2583323,28.4683347 27.459,28.3470008 C27.6596677,28.2256668 27.8731655,28.137001 28.0995,28.0810008 C28.3258345,28.0250005 28.5556655,27.9970008 28.789,27.9970008 C29.1623352,27.9970008 29.4948319,28.0565002 29.7865,28.1755008 C30.0781681,28.2945014 30.325499,28.468333 30.5285,28.6970008 C30.731501,28.9256686 30.8866661,29.2068324 30.994,29.5405008 C31.1013339,29.8741691 31.155,30.2556653 31.155,30.6850008 L31.155,35.2000008 L29.909,35.2000008 L29.909,30.6850008 C29.909,30.1296647 29.7876679,29.7085022 29.545,29.4215008 C29.3023321,29.1344993 28.9500023,28.9910008 28.488,28.9910008 C28.2826656,28.9910008 28.0878343,29.0271671 27.9035,29.0995008 C27.7191657,29.1718345 27.5570007,29.2780001 27.417,29.4180008 C27.2769993,29.5580015 27.1661671,29.7341664 27.0845,29.9465008 C27.0028329,30.1588352 26.962,30.4049994 26.962,30.6850008 L26.962,35.2000008 L25.716,35.2000008 L25.716,30.6850008 C25.716,30.1156646 25.6016678,29.6910022 25.373,29.4110008 C25.1443322,29.1309994 24.8106689,28.9910008 24.372,28.9910008 C24.0639985,28.9910008 23.778168,29.0738333 23.5145,29.2395008 C23.250832,29.4051683 23.0093344,29.6303327 22.79,29.9150008 L22.79,35.2000008 L21.544,35.2000008 Z" id="~160cm" fill="#4EB5AC" fill-rule="nonzero"></path>
                </g>
            </g>
        </g>
        <g id="ダンボール" transform="translate(44.000000, 82.000000)">
            <g>
                <path d="M58.847685,-3.33955086e-13 L58.847,0.999 L116.669192,11 L116.669192,58.0640237 L66,92.3247316 L61.618,58.064 L55,58.0640237 L54.999,49.317 L-1.39976919e-12,39.5529286 L57.343,1.011 L57.3438735,0.739135022 L57.665,0.795 L58.847685,-3.33955086e-13 Z" id="Combined-Shape" fill="#FF9800"></path>
                <g id="スーツケース小" transform="translate(1.000000, 35.000000)" fill="#FFC551">
                    <path d="M0,0.582920213 L65,10.2193261 L65,33.6368716 L65,58.8837269 L0,48.5988129 L0,18.6368716 L0,0.582920213 Z" id="Combined-Shape"></path>
                </g>
                <g id="テープ" transform="translate(1.500000, 0.057993)">
                    <mask id="mask-2" fill="white">
                        <use xlink:href="#path-1"></use>
                    </mask>
                    <use id="Mask" fill="#FFDF9E" xlink:href="#path-1"></use>
                    <path d="M30,40.4420075 L81,3.44200747" stroke="#FF9800" stroke-width="7" stroke-linecap="square" mask="url(#mask-2)"></path>
                </g>
                <rect id="Rectangle" fill="#424242" transform="translate(30.840031, 49.605627) rotate(9.000000) translate(-30.840031, -49.605627) " x="20.340031" y="46.6056269" width="21" height="6" rx="3"></rect>
            </g>
        </g>
    </g>
</svg>