<?xml version="1.0" encoding="UTF-8"?>
<svg width="200px" height="200px" viewBox="0 0 200 200" version="1.1" xmlns="http://www.w3.org/2000/svg" xmlns:xlink="http://www.w3.org/1999/xlink">
    <!-- Generator: Sketch 57.1 (83088) - https://sketch.com -->
    <title>lv1: img / luggageType / 004</title>
    <desc>Created with Sketch.</desc>
    <g id="lv1:-img-/-luggageType-/-004" stroke="none" stroke-width="1" fill="none" fill-rule="evenodd">
        <g id="lv4:-size/-80" transform="translate(27.000000, 69.000000)">
            <g id="Group-2">
                <circle id="Oval" stroke="#83CBC5" fill-opacity="0.699437281" fill="#FFFFFF" cx="23" cy="23" r="23"></circle>
                <path d="M16.133,18.3090004 C16.4363348,18.3090004 16.6731658,18.2098347 16.8435,18.0115004 C17.0138342,17.8131661 17.1013333,17.5506687 17.106,17.2240004 L18.114,17.2240004 C18.114,17.5366686 18.0708338,17.8236657 17.9845,18.0850004 C17.8981662,18.346335 17.7745008,18.5703328 17.6135,18.7570004 C17.4524992,18.943668 17.2530012,19.0883332 17.015,19.1910004 C16.7769988,19.2936676 16.5086682,19.3450004 16.21,19.3450004 C15.9673321,19.3450004 15.7270012,19.3076674 15.489,19.2330004 C15.2509988,19.1583333 15.0211678,19.0755008 14.7995,18.9845004 C14.5778322,18.8934999 14.3666677,18.8095008 14.166,18.7325004 C13.9653323,18.6555 13.7810008,18.6170004 13.613,18.6170004 C13.3096651,18.6170004 13.0728342,18.7149994 12.9025,18.9110004 C12.7321658,19.1070014 12.6446667,19.3706654 12.64,19.7020004 L11.632,19.7020004 C11.632,19.3893322 11.6751662,19.102335 11.7615,18.8410004 C11.8478338,18.5796657 11.9714992,18.355668 12.1325,18.1690004 C12.2935008,17.9823328 12.4918322,17.8365009 12.7275,17.7315004 C12.9631678,17.6264999 13.2326651,17.5740004 13.536,17.5740004 C13.7786679,17.5740004 14.0189988,17.6125 14.257,17.6895004 C14.4950012,17.7665008 14.7248322,17.8504999 14.9465,17.9415004 C15.1681678,18.0325008 15.3793323,18.1165 15.58,18.1935004 C15.7806677,18.2705008 15.9649992,18.3090004 16.133,18.3090004 Z M22.993,22.7120004 C22.4936642,22.7120004 22.0363354,22.645501 21.621,22.5125004 C21.2056646,22.3794997 20.8486682,22.189335 20.55,21.9420004 C20.2513318,21.6946658 20.0203341,21.3948355 19.857,21.0425004 C19.6936658,20.6901653 19.612,20.2946692 19.612,19.8560004 C19.612,19.2119972 19.7799983,18.6811691 20.116,18.2635004 C20.4520017,17.8458316 20.9326635,17.5483346 21.558,17.3710004 C21.030664,17.1749994 20.6328347,16.882169 20.3645,16.4925004 C20.0961653,16.1028318 19.962,15.6373364 19.962,15.0960004 C19.962,14.7273319 20.0343326,14.382002 20.179,14.0600004 C20.3236674,13.7379988 20.5289987,13.4580016 20.795,13.2200004 C21.0610013,12.9819992 21.3794981,12.7953344 21.7505,12.6600004 C22.1215019,12.5246664 22.5356644,12.4570004 22.993,12.4570004 C23.4456689,12.4570004 23.8586648,12.5246664 24.232,12.6600004 C24.6053352,12.7953344 24.9249987,12.9819992 25.191,13.2200004 C25.4570013,13.4580016 25.6623326,13.7379988 25.807,14.0600004 C25.9516674,14.382002 26.024,14.7273319 26.024,15.0960004 C26.024,15.6373364 25.888668,16.1028318 25.618,16.4925004 C25.347332,16.882169 24.9506693,17.1749994 24.428,17.3710004 C25.0533365,17.5483346 25.5339983,17.8458316 25.87,18.2635004 C26.2060017,18.6811691 26.374,19.2119972 26.374,19.8560004 C26.374,20.2946692 26.2911675,20.6901653 26.1255,21.0425004 C25.9598325,21.3948355 25.7288348,21.6946658 25.4325,21.9420004 C25.1361652,22.189335 24.7803354,22.3794997 24.365,22.5125004 C23.9496646,22.645501 23.4923358,22.7120004 22.993,22.7120004 Z M22.993,21.7180004 C23.3196683,21.7180004 23.6124987,21.6725008 23.8715,21.5815004 C24.1305013,21.4904999 24.3498324,21.3621679 24.5295,21.1965004 C24.7091676,21.0308329 24.8468329,20.8325015 24.9425,20.6015004 C25.0381671,20.3704992 25.086,20.1150018 25.086,19.8350004 C25.086,19.4896653 25.0288339,19.1945016 24.9145,18.9495004 C24.8001661,18.7044992 24.6461676,18.5050012 24.4525,18.3510004 C24.2588324,18.1969996 24.0360013,18.0838341 23.784,18.0115004 C23.5319987,17.9391667 23.2683347,17.9030004 22.993,17.9030004 C22.7176653,17.9030004 22.4540013,17.9391667 22.202,18.0115004 C21.9499987,18.0838341 21.7271676,18.1969996 21.5335,18.3510004 C21.3398324,18.5050012 21.1858339,18.7044992 21.0715,18.9495004 C20.9571661,19.1945016 20.9,19.4896653 20.9,19.8350004 C20.9,20.1150018 20.9478329,20.3704992 21.0435,20.6015004 C21.1391671,20.8325015 21.2768324,21.0308329 21.4565,21.1965004 C21.6361676,21.3621679 21.8554987,21.4904999 22.1145,21.5815004 C22.3735013,21.6725008 22.6663317,21.7180004 22.993,21.7180004 Z M22.993,16.9020004 C23.3196683,16.9020004 23.5984988,16.8518342 23.8295,16.7515004 C24.0605012,16.6511665 24.2483326,16.5181679 24.393,16.3525004 C24.5376674,16.1868329 24.6426663,15.9966681 24.708,15.7820004 C24.7733337,15.5673326 24.806,15.3456682 24.806,15.1170004 C24.806,14.8836659 24.7675004,14.6643347 24.6905,14.4590004 C24.6134996,14.253666 24.4991674,14.0740012 24.3475,13.9200004 C24.1958326,13.7659996 24.0068345,13.6446675 23.7805,13.5560004 C23.5541655,13.4673333 23.2916682,13.4230004 22.993,13.4230004 C22.6943318,13.4230004 22.4318345,13.4673333 22.2055,13.5560004 C21.9791655,13.6446675 21.7901674,13.7659996 21.6385,13.9200004 C21.4868326,14.0740012 21.3725004,14.253666 21.2955,14.4590004 C21.2184996,14.6643347 21.18,14.8836659 21.18,15.1170004 C21.18,15.3456682 21.2126663,15.5673326 21.278,15.7820004 C21.3433337,15.9966681 21.4483326,16.1868329 21.593,16.3525004 C21.7376674,16.5181679 21.9254988,16.6511665 22.1565,16.7515004 C22.3875012,16.8518342 22.6663317,16.9020004 22.993,16.9020004 Z M34.76,17.5880004 C34.76,18.4653381 34.6655009,19.2248305 34.4765,19.8665004 C34.2874991,20.5081703 34.0296683,21.0389983 33.703,21.4590004 C33.3763317,21.8790025 32.9901689,22.191666 32.5445,22.3970004 C32.0988311,22.6023347 31.6216692,22.7050004 31.113,22.7050004 C30.5996641,22.7050004 30.1225022,22.6023347 29.6815,22.3970004 C29.2404978,22.191666 28.8566683,21.8790025 28.53,21.4590004 C28.2033317,21.0389983 27.9466676,20.5081703 27.76,19.8665004 C27.5733324,19.2248305 27.48,18.4653381 27.48,17.5880004 C27.48,16.7106627 27.5733324,15.9500036 27.76,15.3060004 C27.9466676,14.6619972 28.2033317,14.1288358 28.53,13.7065004 C28.8566683,13.2841649 29.2404978,12.9703347 29.6815,12.7650004 C30.1225022,12.559666 30.5996641,12.4570004 31.113,12.4570004 C31.6216692,12.4570004 32.0988311,12.559666 32.5445,12.7650004 C32.9901689,12.9703347 33.3763317,13.2841649 33.703,13.7065004 C34.0296683,14.1288358 34.2874991,14.6619972 34.4765,15.3060004 C34.6655009,15.9500036 34.76,16.7106627 34.76,17.5880004 Z M33.465,17.5880004 C33.465,16.8226632 33.400834,16.1798363 33.2725,15.6595004 C33.144166,15.1391644 32.9715011,14.7203353 32.7545,14.4030004 C32.5374989,14.0856655 32.2866681,13.8581677 32.002,13.7205004 C31.7173319,13.582833 31.4210015,13.5140004 31.113,13.5140004 C30.8049985,13.5140004 30.5086681,13.582833 30.224,13.7205004 C29.9393319,13.8581677 29.6896677,14.0856655 29.475,14.4030004 C29.2603323,14.7203353 29.088834,15.1391644 28.9605,15.6595004 C28.832166,16.1798363 28.768,16.8226632 28.768,17.5880004 C28.768,18.3533375 28.832166,18.9949978 28.9605,19.5130004 C29.088834,20.031003 29.2603323,20.4486655 29.475,20.7660004 C29.6896677,21.0833353 29.9393319,21.310833 30.224,21.4485004 C30.5086681,21.5861677 30.8049985,21.6550004 31.113,21.6550004 C31.4210015,21.6550004 31.7173319,21.5861677 32.002,21.4485004 C32.2866681,21.310833 32.5374989,21.0833353 32.7545,20.7660004 C32.9715011,20.4486655 33.144166,20.031003 33.2725,19.5130004 C33.400834,18.9949978 33.465,18.3533375 33.465,17.5880004 Z M19.843,28.3690008 C19.8056665,28.4203344 19.7683335,28.4600006 19.731,28.4880008 C19.6936665,28.5160009 19.6400003,28.5300008 19.57,28.5300008 C19.4999996,28.5300008 19.4241671,28.5008344 19.3425,28.4425008 C19.2608329,28.3841671 19.1570006,28.3200011 19.031,28.2500008 C18.9049994,28.1800004 18.7521676,28.1158344 18.5725,28.0575008 C18.3928324,27.9991671 18.1723346,27.9700008 17.911,27.9700008 C17.5656649,27.9700008 17.2600013,28.0318335 16.994,28.1555008 C16.7279987,28.279168 16.5051676,28.4576663 16.3255,28.6910008 C16.1458324,28.9243353 16.0105005,29.2066658 15.9195,29.5380008 C15.8284995,29.8693358 15.783,30.240332 15.783,30.6510008 C15.783,31.0803362 15.8319995,31.4618324 15.93,31.7955008 C16.0280005,32.1291691 16.1656658,32.4091663 16.343,32.6355008 C16.5203342,32.8618352 16.7361654,33.0345002 16.9905,33.1535008 C17.2448346,33.2725014 17.5306651,33.3320008 17.848,33.3320008 C18.1513348,33.3320008 18.400999,33.2958345 18.597,33.2235008 C18.793001,33.1511671 18.9563327,33.0706679 19.087,32.9820008 C19.2176673,32.8933337 19.3249996,32.8128345 19.409,32.7405008 C19.4930004,32.6681671 19.5769996,32.6320008 19.661,32.6320008 C19.7683339,32.6320008 19.8476664,32.671667 19.899,32.7510008 L20.249,33.2060008 C19.9409985,33.5840027 19.5560023,33.8604999 19.094,34.0355008 C18.6319977,34.2105016 18.1443359,34.2980008 17.631,34.2980008 C17.1876644,34.2980008 16.7758352,34.2163349 16.3955,34.0530008 C16.0151648,33.8896666 15.6850014,33.6528356 15.405,33.3425008 C15.1249986,33.0321659 14.9045008,32.6506697 14.7435,32.1980008 C14.5824992,31.7453318 14.502,31.2296703 14.502,30.6510008 C14.502,30.1236648 14.5754993,29.636003 14.7225,29.1880008 C14.8695007,28.7399985 15.0841653,28.3538357 15.3665,28.0295008 C15.6488347,27.7051658 15.9976646,27.4520017 16.413,27.2700008 C16.8283354,27.0879999 17.3043306,26.9970008 17.841,26.9970008 C18.3356691,26.9970008 18.7743314,27.0775 19.157,27.2385008 C19.5396686,27.3995016 19.8779985,27.6269993 20.172,27.9210008 L19.843,28.3690008 Z M21.544,34.2000008 L21.544,27.1090008 L22.286,27.1090008 C22.4633342,27.1090008 22.5753331,27.1953332 22.622,27.3680008 L22.713,28.0960008 C22.9743346,27.7739992 23.267165,27.5103351 23.5915,27.3050008 C23.915835,27.0996664 24.2926645,26.9970008 24.722,26.9970008 C25.2026691,26.9970008 25.5911652,27.1299994 25.8875,27.3960008 C26.1838348,27.6620021 26.3973327,28.0213318 26.528,28.4740008 C26.6260005,28.2173328 26.7554992,27.9956684 26.9165,27.8090008 C27.0775008,27.6223332 27.2583323,27.4683347 27.459,27.3470008 C27.6596677,27.2256668 27.8731655,27.137001 28.0995,27.0810008 C28.3258345,27.0250005 28.5556655,26.9970008 28.789,26.9970008 C29.1623352,26.9970008 29.4948319,27.0565002 29.7865,27.1755008 C30.0781681,27.2945014 30.325499,27.468333 30.5285,27.6970008 C30.731501,27.9256686 30.8866661,28.2068324 30.994,28.5405008 C31.1013339,28.8741691 31.155,29.2556653 31.155,29.6850008 L31.155,34.2000008 L29.909,34.2000008 L29.909,29.6850008 C29.909,29.1296647 29.7876679,28.7085022 29.545,28.4215008 C29.3023321,28.1344993 28.9500023,27.9910008 28.488,27.9910008 C28.2826656,27.9910008 28.0878343,28.0271671 27.9035,28.0995008 C27.7191657,28.1718345 27.5570007,28.2780001 27.417,28.4180008 C27.2769993,28.5580015 27.1661671,28.7341664 27.0845,28.9465008 C27.0028329,29.1588352 26.962,29.4049994 26.962,29.6850008 L26.962,34.2000008 L25.716,34.2000008 L25.716,29.6850008 C25.716,29.1156646 25.6016678,28.6910022 25.373,28.4110008 C25.1443322,28.1309994 24.8106689,27.9910008 24.372,27.9910008 C24.0639985,27.9910008 23.778168,28.0738333 23.5145,28.2395008 C23.250832,28.4051683 23.0093344,28.6303327 22.79,28.9150008 L22.79,34.2000008 L21.544,34.2000008 Z" id="~80cm" fill="#4EB5AC" fill-rule="nonzero"></path>
            </g>
        </g>
        <g id="Group" transform="translate(49.000000, 58.000000)">
            <g id="ハンドバック">
                <g></g>
            </g>
            <path d="M31.8218446,36.2212686 L39.0147281,35.0973237 C39.6165353,22.4404991 40.6307563,15.3322604 42.0573911,13.7726074 C44.1973434,11.4331279 55.0866577,3.00442402 71.7284031,17.7481517 C75.8479671,28.8000009 77.9077492,37.2338307 77.9077492,43.0496413 C77.9077492,48.8654519 79.8791143,49.7092213 83.8218446,45.5809496 C82.6692516,28.8645446 80.3655298,18.5166883 76.9106791,14.5373806 C71.7284031,8.56841902 64.6740429,3.52130861 54.6342249,2.44041606 C44.5944068,1.35952352 33.7260432,9.94015155 32.7712952,18.3941347 C32.1347966,24.0301235 31.818313,29.9725015 31.8218446,36.2212686 Z" id="Path-41" fill="#424242" transform="translate(57.821845, 25.249825) rotate(-3.000000) translate(-57.821845, -25.249825) "></path>
            <path d="M43.0769766,35.054479 L74.9255266,39.8716331 C83.8102511,41.2154638 91.5102129,46.7417606 95.6268749,54.7290821 C99.022817,61.3180322 100.896809,66.2862056 101.248852,69.6336023 C101.70824,74.0016965 101.785614,82.955822 101.480973,96.4959789 C101.401216,100.040794 99.0274533,102.995098 95.8100354,103.972369 L96.3733541,104.084522 L82.2488518,115.410912 L80.7134046,102.864497 L11.3394694,94.6805079 C7.06671706,94.1764217 3.95782776,90.3832785 4.30249492,86.0947216 C5.31734905,73.4672936 6.62162762,65.1642278 8.21533064,61.185524 C9.23908657,58.6297017 11.2879899,54.6441168 14.3620405,49.2287692 L10.2488518,49.2276934 C13.1659065,46.3770622 15.6077977,44.2633261 17.5745253,42.886485 C18.9626459,41.9147075 20.8797607,40.7739778 23.3258698,39.4642958 C29.0093405,35.6644822 36.0212087,33.9872807 43.0769766,35.054479 Z" id="Combined-Shape" fill="#78BAB1"></path>
            <path d="M10.7153526,48.0632288 C22.9035848,38.533678 31.9941944,33.7689026 37.9871814,33.7689026 L75.2942046,39.4471664 C81.4421691,42.2587912 85.5707044,44.4461165 87.6798105,46.0091422 L75.2942046,55.7689026 C71.1243934,52.3891135 66.4772367,50.2931684 61.3527344,49.4810674 C56.2282322,48.6689665 39.3491049,48.1963536 10.7153526,48.0632288 Z" id="Path-42" fill="#C6F9F3"></path>
            <path d="M28.3799224,44.5886018 L64.8052223,50.2952465 C70.6606913,51.2126049 75.7526638,54.8098857 78.5738707,60.022261 C79.0620511,60.924208 79.3267045,61.4280884 79.3678311,61.5339022 C82.2961042,69.0679988 81.960714,76.4721213 82.3423486,79.3753689 C82.8071109,82.9110027 83.3306673,92.8356104 83.9130179,109.149192 C84.0706409,113.564659 80.618974,117.271879 76.2035068,117.429499 C75.633117,117.44986 75.0621859,117.409123 74.5004655,117.307982 L6.64584946,105.090413 C2.89388797,104.41485 0.139876049,101.185629 0.0650379963,97.3740675 C-0.188777145,84.4470616 0.300305667,74.4018715 1.53228643,67.2384972 C1.72547036,66.1152258 1.90906699,64.9832912 2.08307632,63.8426933 C3.9988066,51.2854339 15.7314843,42.658772 28.2887434,44.5745043 C28.3191458,44.5791425 28.3495389,44.5838417 28.3799224,44.5886018 Z" id="Rectangle" fill="#9CDAD2"></path>
            <path d="M18.9364282,47.2243469 C17.334245,53.3240553 17.1626151,56.5792366 18.4215385,56.9898907 C20.3099236,57.6058719 21.498564,58.9152449 22.7974168,58.9152449 C24.0962696,58.9152449 26.7106479,57.1975779 26.7106479,56.0165932 C26.7106479,54.8356086 29.4201008,29.8576719 30.5509701,26.2627963 C31.6818394,22.6679207 40.0549957,9.77505133 48.792999,7.95920489 C57.5310022,6.14335846 65.86863,14.2516532 66.5113024,16.2109926 C66.7950345,17.0760172 67.8046573,22.3820247 67.7331529,27.533529 C67.6426949,34.0505318 66.3198042,40.7889506 65.1214918,43.1668643 C62.9759476,47.4244507 60.3378777,59.2096967 60.3378777,61.1350509 C60.3378777,63.0604051 60.2550266,65.9190398 63.1805857,65.9190398 C66.1061448,65.9190398 68.8342162,64.3390285 68.8342162,62.4136743 C68.8342162,61.4192649 70.4506548,53.0505186 70.4506548,50.6186852 C70.4506548,48.1868519 70.9028799,42.8049342 71.300946,41.1107927 C71.7218344,39.3195209 72.59892,32 73.3746492,28.3297667 C74.1503784,24.6595334 72.59892,17.2632267 72.4430744,16.2109926 C72.1242152,14.0581266 65.9060104,2 56.1866594,2 C46.4673084,2 39.046626,6.28307526 36.6758988,7.95920489 C34.3051716,9.63533453 28.1280504,18.663754 26.7106479,22.6946075 C25.2932455,26.7254611 23.5693443,35.5513856 22.7974168,38.3310892 C22.2827985,40.1842249 20.9958023,43.1486441 18.9364282,47.2243469 Z" id="Path-40" fill="#424242" transform="translate(45.590625, 33.959520) rotate(-3.000000) translate(-45.590625, -33.959520) "></path>
        </g>
    </g>
</svg>