<?xml version="1.0" encoding="UTF-8"?>
<svg width="200px" height="200px" viewBox="0 0 200 200" version="1.1" xmlns="http://www.w3.org/2000/svg" xmlns:xlink="http://www.w3.org/1999/xlink">
    <!-- Generator: Sketch 57.1 (83088) - https://sketch.com -->
    <title>lv1: img / luggageType / 002</title>
    <desc>Created with Sketch.</desc>
    <g id="lv1:-img-/-luggageType-/-002" stroke="none" stroke-width="1" fill="none" fill-rule="evenodd">
        <g id="lv4:-size/-~120" transform="translate(25.000000, 61.000000)">
            <g id="~120cm">
                <circle id="Oval" stroke="#83CBC5" fill="#FFFFFF" cx="23" cy="23" r="23"></circle>
                <path d="M12.073,18.3090004 C12.3763349,18.3090004 12.6131658,18.2098347 12.7835,18.0115004 C12.9538342,17.8131661 13.0413333,17.5506687 13.046,17.2240004 L14.054,17.2240004 C14.054,17.5366686 14.0108338,17.8236657 13.9245,18.0850004 C13.8381662,18.346335 13.7145008,18.5703328 13.5535,18.7570004 C13.3924992,18.943668 13.1930012,19.0883332 12.955,19.1910004 C12.7169988,19.2936676 12.4486682,19.3450004 12.15,19.3450004 C11.9073321,19.3450004 11.6670012,19.3076674 11.429,19.2330004 C11.1909988,19.1583333 10.9611678,19.0755008 10.7395,18.9845004 C10.5178322,18.8934999 10.3066677,18.8095008 10.106,18.7325004 C9.90533233,18.6555 9.72100084,18.6170004 9.553,18.6170004 C9.24966515,18.6170004 9.01283419,18.7149994 8.8425,18.9110004 C8.67216582,19.1070014 8.58466669,19.3706654 8.58,19.7020004 L7.572,19.7020004 C7.572,19.3893322 7.61516624,19.102335 7.7015,18.8410004 C7.78783377,18.5796657 7.9114992,18.355668 8.0725,18.1690004 C8.23350081,17.9823328 8.43183216,17.8365009 8.6675,17.7315004 C8.90316785,17.6264999 9.17266515,17.5740004 9.476,17.5740004 C9.71866788,17.5740004 9.95899881,17.6125 10.197,17.6895004 C10.4350012,17.7665008 10.6648322,17.8504999 10.8865,17.9415004 C11.1081678,18.0325008 11.3193323,18.1165 11.52,18.1935004 C11.7206677,18.2705008 11.9049992,18.3090004 12.073,18.3090004 Z M16.889,21.6480004 L19.045,21.6480004 L19.045,14.8090004 C19.045,14.603666 19.0519999,14.3960014 19.066,14.1860004 L17.274,15.7190004 C17.2273331,15.7563339 17.1806669,15.783167 17.134,15.7995004 C17.0873331,15.8158338 17.0430002,15.8240004 17.001,15.8240004 C16.9309997,15.8240004 16.8680003,15.8088339 16.812,15.7785004 C16.7559997,15.7481669 16.7140001,15.7120006 16.686,15.6700004 L16.294,15.1310004 L19.276,12.5480004 L20.291,12.5480004 L20.291,21.6480004 L22.265,21.6480004 L22.265,22.6000004 L16.889,22.6000004 L16.889,21.6480004 Z M27.207,12.4570004 C27.6316688,12.4570004 28.0283315,12.5199998 28.397,12.6460004 C28.7656685,12.772001 29.0841653,12.9551658 29.3525,13.1955004 C29.6208347,13.4358349 29.8319992,13.7286653 29.986,14.0740004 C30.1400008,14.4193354 30.217,14.8113315 30.217,15.2500004 C30.217,15.6233356 30.1610006,15.9686655 30.049,16.2860004 C29.9369994,16.6033353 29.7853343,16.9078323 29.594,17.1995004 C29.4026657,17.4911685 29.1821679,17.773499 28.9325,18.0465004 C28.6828321,18.3195017 28.4180014,18.5983323 28.138,18.8830004 L25.499,21.5850004 C25.6856676,21.5336668 25.8746657,21.4928339 26.066,21.4625004 C26.2573343,21.4321669 26.4416658,21.4170004 26.619,21.4170004 L29.979,21.4170004 C30.114334,21.4170004 30.2216663,21.4566667 30.301,21.5360004 C30.3803337,21.6153341 30.42,21.7179998 30.42,21.8440004 L30.42,22.6000004 L23.728,22.6000004 L23.728,22.1730004 C23.728,22.0843333 23.7454998,21.9933342 23.7805,21.9000004 C23.8155002,21.8066666 23.8726663,21.7203341 23.952,21.6410004 L27.165,18.4140004 C27.4310013,18.1433324 27.6736656,17.8831683 27.893,17.6335004 C28.1123344,17.3838325 28.3001659,17.1330016 28.4565,16.8810004 C28.6128341,16.6289991 28.7329996,16.3735017 28.817,16.1145004 C28.9010004,15.8554991 28.943,15.5790019 28.943,15.2850004 C28.943,14.9909989 28.8963338,14.7331682 28.803,14.5115004 C28.7096662,14.2898326 28.5813342,14.1066678 28.418,13.9620004 C28.2546659,13.817333 28.0633344,13.7088341 27.844,13.6365004 C27.6246656,13.5641667 27.3890013,13.5280004 27.137,13.5280004 C26.8849987,13.5280004 26.6516677,13.5653333 26.437,13.6400004 C26.2223323,13.7146674 26.0321675,13.8184997 25.8665,13.9515004 C25.7008325,14.084501 25.5608339,14.2419995 25.4465,14.4240004 C25.3321661,14.6060013 25.2516669,14.806666 25.205,15.0260004 C25.1676665,15.1613344 25.111667,15.2593334 25.037,15.3200004 C24.962333,15.3806674 24.8643339,15.4110004 24.743,15.4110004 C24.7196666,15.4110004 24.6951668,15.4098337 24.6695,15.4075004 C24.6438332,15.405167 24.6146668,15.4016671 24.582,15.3970004 L23.931,15.2850004 C23.9963337,14.8276648 24.1223324,14.4228355 24.309,14.0705004 C24.4956676,13.7181653 24.7324986,13.4230016 25.0195,13.1850004 C25.3065014,12.9469992 25.6354981,12.7661677 26.0065,12.6425004 C26.3775019,12.5188331 26.7776645,12.4570004 27.207,12.4570004 Z M38.82,17.5880004 C38.82,18.4653381 38.7255009,19.2248305 38.5365,19.8665004 C38.3474991,20.5081703 38.0896683,21.0389983 37.763,21.4590004 C37.4363317,21.8790025 37.0501689,22.191666 36.6045,22.3970004 C36.1588311,22.6023347 35.6816692,22.7050004 35.173,22.7050004 C34.6596641,22.7050004 34.1825022,22.6023347 33.7415,22.3970004 C33.3004978,22.191666 32.9166683,21.8790025 32.59,21.4590004 C32.2633317,21.0389983 32.0066676,20.5081703 31.82,19.8665004 C31.6333324,19.2248305 31.54,18.4653381 31.54,17.5880004 C31.54,16.7106627 31.6333324,15.9500036 31.82,15.3060004 C32.0066676,14.6619972 32.2633317,14.1288358 32.59,13.7065004 C32.9166683,13.2841649 33.3004978,12.9703347 33.7415,12.7650004 C34.1825022,12.559666 34.6596641,12.4570004 35.173,12.4570004 C35.6816692,12.4570004 36.1588311,12.559666 36.6045,12.7650004 C37.0501689,12.9703347 37.4363317,13.2841649 37.763,13.7065004 C38.0896683,14.1288358 38.3474991,14.6619972 38.5365,15.3060004 C38.7255009,15.9500036 38.82,16.7106627 38.82,17.5880004 Z M37.525,17.5880004 C37.525,16.8226632 37.460834,16.1798363 37.3325,15.6595004 C37.204166,15.1391644 37.0315011,14.7203353 36.8145,14.4030004 C36.5974989,14.0856655 36.3466681,13.8581677 36.062,13.7205004 C35.7773319,13.582833 35.4810015,13.5140004 35.173,13.5140004 C34.8649985,13.5140004 34.5686681,13.582833 34.284,13.7205004 C33.9993319,13.8581677 33.7496677,14.0856655 33.535,14.4030004 C33.3203323,14.7203353 33.148834,15.1391644 33.0205,15.6595004 C32.892166,16.1798363 32.828,16.8226632 32.828,17.5880004 C32.828,18.3533375 32.892166,18.9949978 33.0205,19.5130004 C33.148834,20.031003 33.3203323,20.4486655 33.535,20.7660004 C33.7496677,21.0833353 33.9993319,21.310833 34.284,21.4485004 C34.5686681,21.5861677 34.8649985,21.6550004 35.173,21.6550004 C35.4810015,21.6550004 35.7773319,21.5861677 36.062,21.4485004 C36.3466681,21.310833 36.5974989,21.0833353 36.8145,20.7660004 C37.0315011,20.4486655 37.204166,20.031003 37.3325,19.5130004 C37.460834,18.9949978 37.525,18.3533375 37.525,17.5880004 Z M19.843,28.3690008 C19.8056665,28.4203344 19.7683335,28.4600006 19.731,28.4880008 C19.6936665,28.5160009 19.6400004,28.5300008 19.57,28.5300008 C19.4999997,28.5300008 19.4241671,28.5008344 19.3425,28.4425008 C19.2608329,28.3841671 19.1570006,28.3200011 19.031,28.2500008 C18.9049994,28.1800004 18.7521676,28.1158344 18.5725,28.0575008 C18.3928324,27.9991671 18.1723346,27.9700008 17.911,27.9700008 C17.5656649,27.9700008 17.2600013,28.0318335 16.994,28.1555008 C16.7279987,28.279168 16.5051676,28.4576663 16.3255,28.6910008 C16.1458324,28.9243353 16.0105005,29.2066658 15.9195,29.5380008 C15.8284995,29.8693358 15.783,30.240332 15.783,30.6510008 C15.783,31.0803362 15.8319995,31.4618324 15.93,31.7955008 C16.0280005,32.1291691 16.1656658,32.4091663 16.343,32.6355008 C16.5203342,32.8618352 16.7361654,33.0345002 16.9905,33.1535008 C17.2448346,33.2725014 17.5306651,33.3320008 17.848,33.3320008 C18.1513349,33.3320008 18.400999,33.2958345 18.597,33.2235008 C18.793001,33.1511671 18.9563327,33.0706679 19.087,32.9820008 C19.2176673,32.8933337 19.3249996,32.8128345 19.409,32.7405008 C19.4930004,32.6681671 19.5769996,32.6320008 19.661,32.6320008 C19.7683339,32.6320008 19.8476664,32.671667 19.899,32.7510008 L20.249,33.2060008 C19.9409985,33.5840027 19.5560023,33.8604999 19.094,34.0355008 C18.6319977,34.2105016 18.1443359,34.2980008 17.631,34.2980008 C17.1876645,34.2980008 16.7758352,34.2163349 16.3955,34.0530008 C16.0151648,33.8896666 15.6850014,33.6528356 15.405,33.3425008 C15.1249986,33.0321659 14.9045008,32.6506697 14.7435,32.1980008 C14.5824992,31.7453318 14.502,31.2296703 14.502,30.6510008 C14.502,30.1236648 14.5754993,29.636003 14.7225,29.1880008 C14.8695007,28.7399985 15.0841653,28.3538357 15.3665,28.0295008 C15.6488347,27.7051658 15.9976646,27.4520017 16.413,27.2700008 C16.8283354,27.0879999 17.3043307,26.9970008 17.841,26.9970008 C18.3356691,26.9970008 18.7743314,27.0775 19.157,27.2385008 C19.5396686,27.3995016 19.8779985,27.6269993 20.172,27.9210008 L19.843,28.3690008 Z M21.544,34.2000008 L21.544,27.1090008 L22.286,27.1090008 C22.4633342,27.1090008 22.5753331,27.1953332 22.622,27.3680008 L22.713,28.0960008 C22.9743346,27.7739992 23.267165,27.5103351 23.5915,27.3050008 C23.915835,27.0996664 24.2926645,26.9970008 24.722,26.9970008 C25.2026691,26.9970008 25.5911652,27.1299994 25.8875,27.3960008 C26.1838348,27.6620021 26.3973327,28.0213318 26.528,28.4740008 C26.6260005,28.2173328 26.7554992,27.9956684 26.9165,27.8090008 C27.0775008,27.6223332 27.2583323,27.4683347 27.459,27.3470008 C27.6596677,27.2256668 27.8731655,27.137001 28.0995,27.0810008 C28.3258345,27.0250005 28.5556655,26.9970008 28.789,26.9970008 C29.1623352,26.9970008 29.4948319,27.0565002 29.7865,27.1755008 C30.0781681,27.2945014 30.325499,27.468333 30.5285,27.6970008 C30.731501,27.9256686 30.8866661,28.2068324 30.994,28.5405008 C31.1013339,28.8741691 31.155,29.2556653 31.155,29.6850008 L31.155,34.2000008 L29.909,34.2000008 L29.909,29.6850008 C29.909,29.1296647 29.7876679,28.7085022 29.545,28.4215008 C29.3023321,28.1344993 28.9500023,27.9910008 28.488,27.9910008 C28.2826656,27.9910008 28.0878343,28.0271671 27.9035,28.0995008 C27.7191657,28.1718345 27.5570007,28.2780001 27.417,28.4180008 C27.2769993,28.5580015 27.1661671,28.7341664 27.0845,28.9465008 C27.0028329,29.1588352 26.962,29.4049994 26.962,29.6850008 L26.962,34.2000008 L25.716,34.2000008 L25.716,29.6850008 C25.716,29.1156646 25.6016678,28.6910022 25.373,28.4110008 C25.1443322,28.1309994 24.8106689,27.9910008 24.372,27.9910008 C24.0639985,27.9910008 23.778168,28.0738333 23.5145,28.2395008 C23.250832,28.4051683 23.0093344,28.6303327 22.79,28.9150008 L22.79,34.2000008 L21.544,34.2000008 Z" fill="#4EB5AC" fill-rule="nonzero"></path>
            </g>
        </g>
        <g id="Group-7" transform="translate(51.000000, 33.000000)">
            <g id="スーツケース小">
                <g>
                    <ellipse id="Oval" stroke="#414242" stroke-width="2.26" fill="#424242" cx="12.1474954" cy="134.149463" rx="4.5890538" ry="4.59748428"></ellipse>
                    <ellipse id="Oval" stroke="#414242" stroke-width="2.26" fill="#424242" cx="65.7764378" cy="143.442964" rx="4.5890538" ry="4.59748428"></ellipse>
                    <ellipse id="Oval" stroke="#414242" stroke-width="2.26" fill="#424242" cx="88.4925788" cy="132.149463" rx="4.5890538" ry="4.59748428"></ellipse>
                    <path d="M42,59.2254131 L42,4.61896198 C42.1431397,1.53965399 43.4301964,-1.10844667e-12 45.8611701,-1.10844667e-12 L68.9215555,3.29874297 C71.8322104,4.23952233 73.2875379,5.70939985 73.2875379,7.70837553 L73.2875379,63 L68.9215555,63 L68.9215555,10.0831817 C69.43149,8.19219975 68.8995196,7.07577617 67.3256444,6.73391098 L47.3989684,3.82238294 C45.9523669,3.57972248 45.2290662,4.00431204 45.2290662,5.09615161 L45.8611701,59.2254131 L42.047065,59.2254131 L42,59.2254131 Z" id="Path-34" stroke="#424242" stroke-width="1.3" fill="#424242"></path>
                    <path d="M96.9408614,72.9539675 L96.9408614,121.555695 C96.9408614,124.994155 94.7983721,127.93221 91.7755444,129.107708 L73.3346029,142.604701 L73.3346029,128.414134 L26.9963325,124.623028 C22.7929628,124.279135 19.5568169,120.767415 19.5568169,116.550001 L19.5568169,76.1060071 L4,70.2102064 L21.8321962,57.4711534 C23.3050119,55.9474371 25.3702715,55 27.6568169,55 C28.0881909,55 28.5188757,55.0344598 28.9447618,55.1030507 L90.1288063,64.9570182 C94.0545636,65.5892792 96.9408614,68.9776219 96.9408614,72.9539675 Z" id="Path" fill="#9AA640"></path>
                    <path d="M80,87.4018062 L80,133.925314 C80,138.398821 76.3735065,142.025314 71.9,142.025314 C71.478794,142.025314 71.0582297,141.99246 70.6421335,141.92705 L6.84213352,131.89774 C2.90263403,131.278454 7.10542736e-15,127.883883 7.10542736e-15,123.896005 L7.10542736e-15,77.1 C7.10542736e-15,72.6264935 3.62649353,69 8.1,69 C8.53247001,69 8.96424546,69.0346352 9.39118555,69.1035733 L73.1911856,79.4053795 C77.1154597,80.0390333 80,83.4267031 80,87.4018062 Z" id="Path" fill="#B6C455"></path>
                    <path d="M78.3051476,82 L96.530077,68.5 C94.9988276,66.1191988 93.0315331,64.9287982 90.6281933,64.9287982 L28.7668163,55 C25.4212319,55.0268471 23.1101025,55.4813706 21.8334283,56.3635704 L5,68.5 L73.2455364,79.7250923 C74.5372686,80.1249449 75.4796978,80.4582122 76.0728242,80.7248943 C76.6659506,80.9915764 77.4100584,81.4166116 78.3051476,82 Z" id="Path-37" fill="#D4E07D"></path>
                    <path d="M58.6840771,67.2319772 C58.7608599,67.2586193 58.7522727,67.2645971 58.7522727,67.3317508 L58.7522727,69.4135614 L61.2522727,69.4135614 L61.2522727,67.3317508 C61.2522727,66.132314 60.5548098,65.2328874 59.3861262,64.8305357 L59.2788769,64.7936121 L39.3124931,61.7641447 L39.1249788,61.75 C37.251057,61.75 36.6357324,63.421292 36.7674119,66.0744156 L39.2643384,65.9504884 C39.226765,65.1934462 39.2652494,64.634273 39.3554847,64.2992809 L58.6840771,67.2319772 Z" id="Path-36" fill="#424242" fill-rule="nonzero"></path>
                    <path d="M89.3904277,113.091449 C89.3761252,113.171454 89.3688776,113.163908 89.3025507,113.174413 L87.2463707,113.50008 L87.6374568,115.969301 L89.6936369,115.643634 C90.8783066,115.456001 91.6575526,114.626423 91.8721283,113.409186 L91.8918197,113.297481 L91.7605588,93.1030038 L91.7451957,92.9155853 C91.4520497,91.0647347 89.7050761,90.7184334 87.1052161,91.2635317 L87.6182229,93.7103304 C88.3600669,93.5547921 88.9183761,93.5053287 89.2633598,93.5420487 L89.3904277,113.091449 Z" id="Shape" fill="#424242" fill-rule="nonzero"></path>
                    <g id="線" transform="translate(18.000000, 89.000000)" stroke="#9AA640" stroke-linecap="round" stroke-width="3">
                        <path d="M0.736549165,0.166666667 L0.736549165,24.8333333" id="Line-16"></path>
                        <path d="M20.7365492,3.16666667 L20.7365492,27.8333333" id="Line-16"></path>
                        <path d="M40.7365492,6.16666667 L40.7365492,30.8333333" id="Line-16"></path>
                    </g>
                </g>
            </g>
        </g>
    </g>
</svg>