<?xml version="1.0" encoding="UTF-8"?>
<svg width="200px" height="200px" viewBox="0 0 200 200" version="1.1" xmlns="http://www.w3.org/2000/svg" xmlns:xlink="http://www.w3.org/1999/xlink">
    <!-- Generator: Sketch 57.1 (83088) - https://sketch.com -->
    <title>lv1: img / luggageType / 005</title>
    <desc>Created with Sketch.</desc>
    <g id="lv1:-img-/-luggageType-/-005" stroke="none" stroke-width="1" fill="none" fill-rule="evenodd">
        <g id="Group" transform="translate(21.000000, 35.000000)">
            <g id="lv4:-size/-160~">
                <g id="160cm~">
                    <circle id="Oval" stroke="#83CBC5" fill-opacity="0.6953125" fill="#FFFFFF" cx="23" cy="23" r="23"></circle>
                    <path d="M12.829,21.6480004 L14.985,21.6480004 L14.985,14.8090004 C14.985,14.603666 14.9919999,14.3960014 15.006,14.1860004 L13.214,15.7190004 C13.1673331,15.7563339 13.1206669,15.783167 13.074,15.7995004 C13.0273331,15.8158338 12.9830002,15.8240004 12.941,15.8240004 C12.8709996,15.8240004 12.8080003,15.8088339 12.752,15.7785004 C12.6959997,15.7481669 12.6540001,15.7120006 12.626,15.6700004 L12.234,15.1310004 L15.216,12.5480004 L16.231,12.5480004 L16.231,21.6480004 L18.205,21.6480004 L18.205,22.6000004 L12.829,22.6000004 L12.829,21.6480004 Z M23.49,16.4540004 C23.8913353,16.4540004 24.2716649,16.5204997 24.631,16.6535004 C24.9903351,16.786501 25.305332,16.9801658 25.576,17.2345004 C25.846668,17.488835 26.0613325,17.8014985 26.22,18.1725004 C26.3786675,18.5435022 26.458,18.966998 26.458,19.4430004 C26.458,19.9050027 26.3740008,20.3343317 26.206,20.7310004 C26.0379992,21.127669 25.8035015,21.4729989 25.5025,21.7670004 C25.2014985,22.0610019 24.8386688,22.2919995 24.414,22.4600004 C23.9893312,22.6280012 23.5226692,22.7120004 23.014,22.7120004 C22.5099975,22.7120004 22.0538354,22.6315012 21.6455,22.4705004 C21.2371646,22.3094996 20.8883348,22.0808352 20.599,21.7845004 C20.3096652,21.4881656 20.0868341,21.1288358 19.9305,20.7065004 C19.7741659,20.2841649 19.696,19.8116697 19.696,19.2890004 C19.696,18.8503315 19.793999,18.3836695 19.99,17.8890004 C20.186001,17.3943312 20.4963312,16.8623366 20.921,16.2930004 L23.462,12.8700004 C23.5273337,12.786 23.6183328,12.714834 23.735,12.6565004 C23.8516672,12.5981668 23.9846659,12.5690004 24.134,12.5690004 L25.24,12.5690004 L21.761,16.9720004 C21.9990012,16.8086662 22.2626652,16.6815008 22.552,16.5905004 C22.8413348,16.4994999 23.1539983,16.4540004 23.49,16.4540004 Z M20.9,19.5060004 C20.9,19.828002 20.9466662,20.1219991 21.04,20.3880004 C21.1333338,20.6540017 21.2698324,20.8826661 21.4495,21.0740004 C21.6291676,21.2653347 21.8484987,21.4134999 22.1075,21.5185004 C22.3665013,21.6235009 22.661665,21.6760004 22.993,21.6760004 C23.3290017,21.6760004 23.632332,21.6223343 23.903,21.5150004 C24.173668,21.4076665 24.4058324,21.2583347 24.5995,21.0670004 C24.7931676,20.8756661 24.9424995,20.649335 25.0475,20.3880004 C25.1525005,20.1266657 25.205,19.8420019 25.205,19.5340004 C25.205,19.2073321 25.1536672,18.9121684 25.051,18.6485004 C24.9483328,18.3848324 24.8036676,18.1608346 24.617,17.9765004 C24.4303324,17.7921661 24.2063346,17.6510009 23.945,17.5530004 C23.6836654,17.4549999 23.3966682,17.4060004 23.084,17.4060004 C22.7479983,17.4060004 22.444668,17.4631665 22.174,17.5775004 C21.903332,17.6918343 21.6735009,17.8458327 21.4845,18.0395004 C21.2954991,18.233168 21.1508338,18.4571658 21.0505,18.7115004 C20.9501662,18.965835 20.9,19.2306657 20.9,19.5060004 Z M34.76,17.5880004 C34.76,18.4653381 34.6655009,19.2248305 34.4765,19.8665004 C34.2874991,20.5081703 34.0296683,21.0389983 33.703,21.4590004 C33.3763317,21.8790025 32.9901689,22.191666 32.5445,22.3970004 C32.0988311,22.6023347 31.6216692,22.7050004 31.113,22.7050004 C30.5996641,22.7050004 30.1225022,22.6023347 29.6815,22.3970004 C29.2404978,22.191666 28.8566683,21.8790025 28.53,21.4590004 C28.2033317,21.0389983 27.9466676,20.5081703 27.76,19.8665004 C27.5733324,19.2248305 27.48,18.4653381 27.48,17.5880004 C27.48,16.7106627 27.5733324,15.9500036 27.76,15.3060004 C27.9466676,14.6619972 28.2033317,14.1288358 28.53,13.7065004 C28.8566683,13.2841649 29.2404978,12.9703347 29.6815,12.7650004 C30.1225022,12.559666 30.5996641,12.4570004 31.113,12.4570004 C31.6216692,12.4570004 32.0988311,12.559666 32.5445,12.7650004 C32.9901689,12.9703347 33.3763317,13.2841649 33.703,13.7065004 C34.0296683,14.1288358 34.2874991,14.6619972 34.4765,15.3060004 C34.6655009,15.9500036 34.76,16.7106627 34.76,17.5880004 Z M33.465,17.5880004 C33.465,16.8226632 33.400834,16.1798363 33.2725,15.6595004 C33.144166,15.1391644 32.9715011,14.7203353 32.7545,14.4030004 C32.5374989,14.0856655 32.2866681,13.8581677 32.002,13.7205004 C31.7173319,13.582833 31.4210015,13.5140004 31.113,13.5140004 C30.8049985,13.5140004 30.5086681,13.582833 30.224,13.7205004 C29.9393319,13.8581677 29.6896677,14.0856655 29.475,14.4030004 C29.2603323,14.7203353 29.088834,15.1391644 28.9605,15.6595004 C28.832166,16.1798363 28.768,16.8226632 28.768,17.5880004 C28.768,18.3533375 28.832166,18.9949978 28.9605,19.5130004 C29.088834,20.031003 29.2603323,20.4486655 29.475,20.7660004 C29.6896677,21.0833353 29.9393319,21.310833 30.224,21.4485004 C30.5086681,21.5861677 30.8049985,21.6550004 31.113,21.6550004 C31.4210015,21.6550004 31.7173319,21.5861677 32.002,21.4485004 C32.2866681,21.310833 32.5374989,21.0833353 32.7545,20.7660004 C32.9715011,20.4486655 33.144166,20.031003 33.2725,19.5130004 C33.400834,18.9949978 33.465,18.3533375 33.465,17.5880004 Z M15.783,28.3690008 C15.7456665,28.4203344 15.7083335,28.4600006 15.671,28.4880008 C15.6336665,28.5160009 15.5800003,28.5300008 15.51,28.5300008 C15.4399996,28.5300008 15.3641671,28.5008344 15.2825,28.4425008 C15.2008329,28.3841671 15.0970006,28.3200011 14.971,28.2500008 C14.8449994,28.1800004 14.6921676,28.1158344 14.5125,28.0575008 C14.3328324,27.9991671 14.1123346,27.9700008 13.851,27.9700008 C13.5056649,27.9700008 13.2000013,28.0318335 12.934,28.1555008 C12.6679987,28.279168 12.4451676,28.4576663 12.2655,28.6910008 C12.0858324,28.9243353 11.9505005,29.2066658 11.8595,29.5380008 C11.7684995,29.8693358 11.723,30.240332 11.723,30.6510008 C11.723,31.0803362 11.7719995,31.4618324 11.87,31.7955008 C11.9680005,32.1291691 12.1056658,32.4091663 12.283,32.6355008 C12.4603342,32.8618352 12.6761654,33.0345002 12.9305,33.1535008 C13.1848346,33.2725014 13.4706651,33.3320008 13.788,33.3320008 C14.0913348,33.3320008 14.340999,33.2958345 14.537,33.2235008 C14.733001,33.1511671 14.8963327,33.0706679 15.027,32.9820008 C15.1576673,32.8933337 15.2649996,32.8128345 15.349,32.7405008 C15.4330004,32.6681671 15.5169996,32.6320008 15.601,32.6320008 C15.7083339,32.6320008 15.7876664,32.671667 15.839,32.7510008 L16.189,33.2060008 C15.8809985,33.5840027 15.4960023,33.8604999 15.034,34.0355008 C14.5719977,34.2105016 14.0843359,34.2980008 13.571,34.2980008 C13.1276644,34.2980008 12.7158352,34.2163349 12.3355,34.0530008 C11.9551648,33.8896666 11.6250014,33.6528356 11.345,33.3425008 C11.0649986,33.0321659 10.8445008,32.6506697 10.6835,32.1980008 C10.5224992,31.7453318 10.442,31.2296703 10.442,30.6510008 C10.442,30.1236648 10.5154993,29.636003 10.6625,29.1880008 C10.8095007,28.7399985 11.0241653,28.3538357 11.3065,28.0295008 C11.5888347,27.7051658 11.9376646,27.4520017 12.353,27.2700008 C12.7683354,27.0879999 13.2443306,26.9970008 13.781,26.9970008 C14.2756691,26.9970008 14.7143314,27.0775 15.097,27.2385008 C15.4796686,27.3995016 15.8179985,27.6269993 16.112,27.9210008 L15.783,28.3690008 Z M17.484,34.2000008 L17.484,27.1090008 L18.226,27.1090008 C18.4033342,27.1090008 18.5153331,27.1953332 18.562,27.3680008 L18.653,28.0960008 C18.9143346,27.7739992 19.207165,27.5103351 19.5315,27.3050008 C19.855835,27.0996664 20.2326645,26.9970008 20.662,26.9970008 C21.1426691,26.9970008 21.5311652,27.1299994 21.8275,27.3960008 C22.1238348,27.6620021 22.3373327,28.0213318 22.468,28.4740008 C22.5660005,28.2173328 22.6954992,27.9956684 22.8565,27.8090008 C23.0175008,27.6223332 23.1983323,27.4683347 23.399,27.3470008 C23.5996677,27.2256668 23.8131655,27.137001 24.0395,27.0810008 C24.2658345,27.0250005 24.4956655,26.9970008 24.729,26.9970008 C25.1023352,26.9970008 25.4348319,27.0565002 25.7265,27.1755008 C26.0181681,27.2945014 26.265499,27.468333 26.4685,27.6970008 C26.671501,27.9256686 26.8266661,28.2068324 26.934,28.5405008 C27.0413339,28.8741691 27.095,29.2556653 27.095,29.6850008 L27.095,34.2000008 L25.849,34.2000008 L25.849,29.6850008 C25.849,29.1296647 25.7276679,28.7085022 25.485,28.4215008 C25.2423321,28.1344993 24.8900023,27.9910008 24.428,27.9910008 C24.2226656,27.9910008 24.0278343,28.0271671 23.8435,28.0995008 C23.6591657,28.1718345 23.4970007,28.2780001 23.357,28.4180008 C23.2169993,28.5580015 23.1061671,28.7341664 23.0245,28.9465008 C22.9428329,29.1588352 22.902,29.4049994 22.902,29.6850008 L22.902,34.2000008 L21.656,34.2000008 L21.656,29.6850008 C21.656,29.1156646 21.5416678,28.6910022 21.313,28.4110008 C21.0843322,28.1309994 20.7506689,27.9910008 20.312,27.9910008 C20.0039985,27.9910008 19.718168,28.0738333 19.4545,28.2395008 C19.190832,28.4051683 18.9493344,28.6303327 18.73,28.9150008 L18.73,34.2000008 L17.484,34.2000008 Z M33.269,29.9090008 C33.5723349,29.9090008 33.8091658,29.8098351 33.9795,29.6115008 C34.1498342,29.4131664 34.2373333,29.1506691 34.242,28.8240008 L35.25,28.8240008 C35.25,29.136669 35.2068338,29.4236661 35.1205,29.6850008 C35.0341662,29.9463354 34.9105008,30.1703332 34.7495,30.3570008 C34.5884992,30.5436684 34.3890012,30.6883336 34.151,30.7910008 C33.9129988,30.8936679 33.6446682,30.9450008 33.346,30.9450008 C33.1033321,30.9450008 32.8630012,30.9076678 32.625,30.8330008 C32.3869988,30.7583337 32.1571678,30.6755012 31.9355,30.5845008 C31.7138322,30.4935003 31.5026677,30.4095011 31.302,30.3325008 C31.1013323,30.2555004 30.9170008,30.2170008 30.749,30.2170008 C30.4456651,30.2170008 30.2088342,30.3149998 30.0385,30.5110008 C29.8681658,30.7070017 29.7806667,30.9706658 29.776,31.3020008 L28.768,31.3020008 C28.768,30.9893325 28.8111662,30.7023354 28.8975,30.4410008 C28.9838338,30.1796661 29.1074992,29.9556684 29.2685,29.7690008 C29.4295008,29.5823332 29.6278322,29.4365013 29.8635,29.3315008 C30.0991678,29.2265002 30.3686651,29.1740008 30.672,29.1740008 C30.9146679,29.1740008 31.1549988,29.2125004 31.393,29.2895008 C31.6310012,29.3665011 31.8608322,29.4505003 32.0825,29.5415008 C32.3041678,29.6325012 32.5153323,29.7165004 32.716,29.7935008 C32.9166677,29.8705011 33.1009992,29.9090008 33.269,29.9090008 Z" fill="#4EB5AC" fill-rule="nonzero"></path>
                </g>
            </g>
            <g id="自転車" transform="translate(5.000000, 9.000000)">
                <g id="タイヤ" transform="translate(0.000000, 54.362376)">
                    <g id="Group-2" transform="translate(3.000000, 4.637624)" fill="#BABABA">
                        <rect id="Rectangle" x="24" y="0" width="5" height="52"></rect>
                        <rect id="Rectangle" transform="translate(26.500000, 26.000000) rotate(-45.000000) translate(-26.500000, -26.000000) " x="24" y="0" width="5" height="52"></rect>
                        <rect id="Rectangle" transform="translate(26.500000, 26.000000) rotate(-90.000000) translate(-26.500000, -26.000000) " x="24" y="0" width="5" height="52"></rect>
                        <rect id="Rectangle" transform="translate(26.500000, 26.000000) rotate(-135.000000) translate(-26.500000, -26.000000) " x="24" y="0" width="5" height="52"></rect>
                    </g>
                    <ellipse id="Oval" stroke="#424242" stroke-width="5.72000012" cx="30.2064774" cy="30.4318182" rx="27.3464773" ry="27.5718181"></ellipse>
                </g>
                <g id="Group-2" transform="translate(89.000000, 59.000000)" fill="#BABABA">
                    <rect id="Rectangle" x="24" y="0" width="5" height="52"></rect>
                    <rect id="Rectangle" transform="translate(26.500000, 26.000000) rotate(-45.000000) translate(-26.500000, -26.000000) " x="24" y="0" width="5" height="52"></rect>
                    <rect id="Rectangle" transform="translate(26.500000, 26.000000) rotate(-90.000000) translate(-26.500000, -26.000000) " x="24" y="0" width="5" height="52"></rect>
                    <rect id="Rectangle" transform="translate(26.500000, 26.000000) rotate(-135.000000) translate(-26.500000, -26.000000) " x="24" y="0" width="5" height="52"></rect>
                </g>
                <ellipse id="Oval" stroke="#424242" stroke-width="5.72000012" cx="115.696508" cy="84.7941943" rx="27.3464773" ry="27.5718181"></ellipse>
                <path d="M92.1578861,40.211766 L70.0848655,77.736316 L55.1369606,40.211766 L92.1578861,40.211766 Z M52.8583985,34.4917658 L48.1759899,22.7372572 L42.8620851,24.8540512 L47.7165213,37.0404102 L26.692256,82.4440799 L31.8827904,84.8475678 L50.6315236,44.3581012 L66.9321274,85.2784061 C67.8123563,87.4880932 70.8482538,87.7202378 72.0542187,85.6700748 L99.6234687,38.8018316 C100.744969,36.8952594 99.370293,34.4917658 97.1583298,34.4917658 L52.8583985,34.4917658 Z" id="Path-50" fill="#D86886" fill-rule="nonzero"></path>
                <path d="M113.091396,4.77164433 C113.833918,3.37751712 113.305687,1.64542104 111.91156,0.90289946 C110.517433,0.160377881 108.785337,0.688608615 108.042815,2.08273583 C105.284737,7.2611877 99.4821093,9.20870294 89.9314024,7.6806437 C87.9602927,7.36527727 86.2806173,9.1150995 86.6763203,11.071665 C89.3838958,24.4593533 98.1650844,49.1497913 113.051871,85.3088145 C113.653202,86.769407 115.324721,87.4659764 116.785313,86.8646457 C118.245906,86.2633151 118.942475,84.5917961 118.341144,83.1312036 C104.952435,50.6109123 96.5511607,27.4616368 93.1612429,13.8074105 C102.705744,14.4565998 109.507891,11.4998839 113.091396,4.77164433 Z" id="Path-51" fill="#D86886" fill-rule="nonzero"></path>
                <path d="M59.2730877,14.2283356 C41.6569669,13.6198999 33.112634,15.3073555 33.6400891,19.2907025 C34.4312717,25.265723 34.9256756,27.1125578 40.6853818,26.1891404 C46.4450881,25.265723 50.2641155,20.2607343 56.743521,20.2607343 C63.2229265,20.2607343 63.2229265,18.6052208 63.2229265,17.7180603 C63.2229265,17.3242172 63.3296753,16.3971435 62.1620253,15.4961934 C61.7714731,15.1948462 60.8084939,14.7722269 59.2730877,14.2283356 Z" id="Path-52" fill="#424242"></path>
                <path d="M100.956801,6.56375846 L104.755147,12.5889441 C108.273079,10.8995903 110.566757,9.29704085 111.636182,7.78129576 C113.24032,5.50767814 114.754208,2.84796015 112.356249,0.92751499 C109.95829,-0.992930171 108.53771,1.46191998 106.990383,2.84796015 C105.958832,3.77198693 103.947638,5.01058637 100.956801,6.56375846 Z" id="Path-53" fill="#424242"></path>
                <path d="M69.5890798,78.4781566 L69.5858731,78.55618 C74.0579792,79.1453141 77.5109608,82.9989656 77.5109608,87.6651206 C77.5109608,92.5653119 73.7029163,96.5694516 68.9055783,96.8377609 L68.9047477,96.8520846 L68.8199849,96.8421461 C68.6781532,96.8487475 68.5354756,96.8520846 68.3920243,96.8520846 C67.4751093,96.8520846 66.5898021,96.7157464 65.7549863,96.4620946 L31.8219327,92.2586026 L31.8159503,92.1795198 C31.4769798,92.2315961 31.1298258,92.2586026 30.7764109,92.2586026 C26.9992237,92.2586026 23.9372085,89.1737447 23.9372085,85.3683796 C23.9372085,81.6422929 26.8729687,78.6070051 30.5412891,78.482152 L30.7764109,78.4781566 L68.3912085,78.4781566 L69.5890798,78.4781566 Z" id="Combined-Shape" fill="#D86886"></path>
            </g>
        </g>
    </g>
</svg>