<?xml version="1.0" encoding="UTF-8"?>
<svg width="17px" height="32px" viewBox="0 0 17 32" version="1.1" xmlns="http://www.w3.org/2000/svg" xmlns:xlink="http://www.w3.org/1999/xlink">
    <!-- Generator: Sketch 57.1 (83088) - https://sketch.com -->
    <title>Path 4</title>
    <desc>Created with Sketch.</desc>
    <g id="🚗-General" stroke="none" stroke-width="1" fill="none" fill-rule="evenodd" fill-opacity="0.7">
        <g id="Top" transform="translate(-1083.000000, -3850.000000)" fill="#FFFFFF" fill-rule="nonzero">
            <g id="Group-14" transform="translate(0.000000, 3543.000000)">
                <g id="Group-23">
                    <g id="Group-6">
                        <g id="Group-31" transform="translate(340.000000, 192.000000)">
                            <g id="Path-4" transform="translate(751.500000, 131.000000) scale(-1, 1) translate(-751.500000, -131.000000) translate(743.000000, 115.000000)">
                                <path d="M8.30347296,8 C7.94206009,8.0054553 7.59695122,8.14889246 7.34151678,8.3985803 L-6.57152669,21.9985803 C-6.93565748,22.3385803 -7.08239626,22.8459235 -6.95467939,23.3240485 C-6.82696182,23.7995175 -6.44652704,24.1713925 -5.96011382,24.2962364 C-5.47098339,24.4210803 -4.95196148,24.2776425 -4.60413539,23.9217053 L8.32521209,11.2832675 L21.2545603,23.9217053 C21.6023863,24.2776425 22.1214076,24.4210803 22.610538,24.2962364 C23.0969512,24.1713925 23.477386,23.7995175 23.6051036,23.3240485 C23.7328211,22.8459235 23.5860817,22.3385803 23.2219516,21.9985803 L9.30890809,8.3985803 C9.04260339,8.13826746 8.68119052,7.9948303 8.30347296,8 Z" id="Path" transform="translate(8.325212, 16.170269) rotate(-90.000000) translate(-8.325212, -16.170269) "></path>
                            </g>
                        </g>
                    </g>
                </g>
            </g>
        </g>
    </g>
</svg>