<?xml version="1.0" encoding="UTF-8"?>
<svg width="24px" height="48px" viewBox="0 0 24 48" version="1.1" xmlns="http://www.w3.org/2000/svg" xmlns:xlink="http://www.w3.org/1999/xlink">
    <!-- Generator: Sketch 57.1 (83088) - https://sketch.com -->
    <title>Group 7</title>
    <desc>Created with Sketch.</desc>
    <g id="🚗-General" stroke="none" stroke-width="1" fill="none" fill-rule="evenodd">
        <g id="top---menu" transform="translate(-315.000000, -549.000000)">
            <g id="Group-7" transform="translate(309.000000, 545.000000)">
                <g id="lv4:-SNS-/-call">
                    <g id="Call">
                        <g id="Group">
                            <rect id="Rectangle" stroke="#979797" stroke-width="1.2" fill="#D8D8D8" opacity="0" x="0.6" y="0.6" width="33.8" height="33.8"></rect>
                            <g id="icons8-phone" transform="translate(5.833333, 4.375000)" fill="#000000" fill-opacity="0.302748033" fill-rule="nonzero">
                                <path d="M21.2084963,18.2006838 C19.674512,16.863732 18.1134115,16.0513076 16.5987953,17.3882585 L15.6923505,18.1927957 C15.0299479,18.7804242 13.7981125,21.5174279 9.03733699,15.9369363 C4.2765625,10.3682765 7.10823592,9.50063827 7.77451197,8.92089894 L8.68483122,8.11241712 C10.1916995,6.77546625 9.62226562,5.09145909 8.53375676,3.35618264 L7.87910206,2.30712865 C6.78671875,0.579740337 5.59361979,-0.556076971 4.0828781,0.776930337 L3.26552759,1.50653596 C2.5953781,1.99951197 0.728255208,3.61253005 0.2750328,6.67292668 C-0.271158358,10.3446141 1.45263697,14.5526598 5.3921875,19.1669171 C9.32786458,23.7851189 13.1860677,26.1040793 16.8350916,26.0646407 C19.8681964,26.0291466 21.7043297,24.3727464 22.277637,23.7693437 L23.0949875,23.0397391 C24.6057292,21.7067308 23.6682948,20.3461165 22.1304359,19.0091647 L21.2084963,18.2006838 Z" id="Path"></path>
                            </g>
                        </g>
                    </g>
                </g>
                <text id="Call" font-family="Helvetica" font-size="10" font-weight="normal" fill="#000000" fill-opacity="0.497650787">
                    <tspan x="8.88671875" y="51">Call</tspan>
                </text>
            </g>
        </g>
    </g>
</svg>