<?xml version="1.0" encoding="UTF-8"?>
<svg width="37px" height="49px" viewBox="0 0 37 49" version="1.1" xmlns="http://www.w3.org/2000/svg" xmlns:xlink="http://www.w3.org/1999/xlink">
    <!-- Generator: Sketch 57.1 (83088) - https://sketch.com -->
    <title>Group 4</title>
    <desc>Created with Sketch.</desc>
    <g id="🚗-General" stroke="none" stroke-width="1" fill="none" fill-rule="evenodd">
        <g id="top---menu" transform="translate(-169.000000, -548.000000)">
            <g id="Group-4" transform="translate(165.000000, 545.000000)">
                <g id="lv4:-SNS-/-WeChat" transform="translate(5.000000, 0.000000)">
                    <g id="WeChat">
                        <rect id="Rectangle" stroke="#979797" stroke-width="1.2" fill="#D8D8D8" opacity="0" x="0.6" y="0.6" width="33.8" height="33.8"></rect>
                        <g id="icons8-weixing" transform="translate(1.666667, 3.125000)" fill="#000000" fill-opacity="0.302748033" fill-rule="nonzero">
                            <path d="M13.5416667,0 C6.07479167,0 0,5.06115462 0,11.2824061 C0,13.3915523 0.692486979,15.4275501 2.01009115,17.2061882 L1.2219239,23.2492228 L6.66768389,21.006741 C8.41718367,21.8658405 10.3751131,22.3592759 12.4202474,22.5 C13.4221764,26.4080244 17.583303,29.2015216 22.34375,29.2015216 C24.3106419,29.2015216 26.0977803,28.6554943 27.6652025,27.8327002 L31.6033941,30 L31.0030107,24.9991359 C31.8958331,23.7382912 32.5,22.2802154 32.5,20.6826825 C32.5,17.2793898 30.1709078,14.4521197 26.8849696,13.0737986 C27.0032669,12.4747745 27.0833333,11.8760783 27.0833333,11.2824061 C27.0833333,5.06115462 21.0085417,0 13.5416667,0 Z M8.88671875,6.86484633 C9.94026042,6.86484633 10.7910156,7.69881113 10.7910156,8.72882857 C10.7910156,9.75884587 9.93890625,10.5979954 8.88671875,10.5979954 C7.83453125,10.5979954 6.98242188,9.76150055 6.98242188,8.72882857 C6.98242188,7.69881113 7.83453125,6.86484633 8.88671875,6.86484633 Z M19.2757161,6.86484633 C20.3279036,6.86484633 21.180013,7.69881113 21.180013,8.72882857 C21.180013,9.76150055 20.3279036,10.5979954 19.2757161,10.5979954 C18.2208203,10.5979954 17.3714193,9.76150055 17.3714193,8.72882857 C17.3714193,7.69748378 18.2235286,6.86484633 19.2757161,6.86484633 Z M22.34375,14.8211208 C26.5953932,14.8211208 29.7916667,17.5719187 29.7916667,20.6826825 C29.7916667,21.8617656 29.3552106,22.9536569 28.5618084,23.8999309 L28.1968185,24.335465 L28.2629398,24.8954373 L28.2920327,25.1339447 L27.6916507,24.8047016 L27.0039873,25.2402356 C25.7391699,26.0453508 24.1223084,26.5468378 22.34375,26.5468378 C18.0921068,26.5468378 14.8958333,23.7934476 14.8958333,20.6826825 C14.8958333,17.5735341 18.0923586,14.8211208 22.34375,14.8211208 Z M18.9398192,17.8257874 C18.1408608,17.8257874 17.4983724,18.4582035 17.4983724,19.2386805 C17.4983724,20.0191575 18.142215,20.6541658 18.9398192,20.6541658 C19.734715,20.6541658 20.3825565,20.0191575 20.3839106,19.2386805 C20.3839106,18.4582035 19.7360692,17.8257874 18.9398192,17.8257874 Z M25.7741291,17.8257874 C24.9792332,17.8257874 24.3326823,18.4582035 24.3326823,19.2386805 C24.3326823,20.0191575 24.9778791,20.6541658 25.7741291,20.6541658 C26.5717332,20.6541658 27.2208652,20.0191575 27.2208652,19.2386805 C27.2208652,18.4582035 26.5717332,17.8257874 25.7741291,17.8257874 Z" id="Shape"></path>
                        </g>
                    </g>
                </g>
                <text id="WeChat" font-family="Helvetica" font-size="10" font-weight="normal" fill="#000000" fill-opacity="0.497650787">
                    <tspan x="4.43847656" y="51">WeChat</tspan>
                </text>
            </g>
        </g>
    </g>
</svg>