<?xml version="1.0" encoding="UTF-8"?>
<svg width="31px" height="47px" viewBox="0 0 31 47" version="1.1" xmlns="http://www.w3.org/2000/svg" xmlns:xlink="http://www.w3.org/1999/xlink">
    <!-- Generator: Sketch 57.1 (83088) - https://sketch.com -->
    <title>Group 2</title>
    <desc>Created with Sketch.</desc>
    <g id="🚗-General" stroke="none" stroke-width="1" fill="none" fill-rule="evenodd">
        <g id="top---menu" transform="translate(-33.000000, -549.000000)">
            <g id="Group-2" transform="translate(31.000000, 545.000000)">
                <g id="lv4:-SNS-/-LINE">
                    <g id="LINE">
                        <g id="Group">
                            <rect id="Rectangle" stroke="#979797" stroke-width="1.2" fill="#D8D8D8" opacity="0" x="0.6" y="0.6" width="33.8" height="33.8"></rect>
                            <g id="icons8-line_me_filled" transform="translate(2.916667, 4.375000)" fill="#000000" fill-opacity="0.302748033" fill-rule="nonzero">
                                <path d="M14.5833333,0 C22.6236111,0 29.1666667,5.12051815 29.1666667,11.416998 C29.1666667,13.9298572 28.1548721,16.2053439 26.0354276,18.4411198 C24.5090387,20.1418382 22.0310874,22.0139422 19.7463651,23.561787 C17.4616429,25.0905226 15.3611111,26.2938793 14.5833333,26.609181 C14.2722222,26.7333908 14.0388889,26.7901957 13.8541667,26.7901957 C13.2125,26.7901957 13.270074,26.1230163 13.3186851,25.845933 C13.357574,25.6357318 13.5332575,24.6404122 13.5332575,24.6404112 C13.5818686,24.2868921 13.6297204,23.7249614 13.4838871,23.3714422 C13.3186093,22.9797037 12.6671436,22.7783845 12.1907547,22.6828385 C5.19075569,21.7847063 0,17.0542107 0,11.416998 C0,5.12051815 6.54305556,0 14.5833333,0 Z M13.6035161,7.64181215 C13.1137018,7.65074187 12.6388889,8.01809896 12.6388889,8.59913793 L12.6388889,14.3318966 C12.6388889,14.8593103 13.0744444,15.2873563 13.6111111,15.2873563 C14.1477778,15.2873563 14.5833333,14.8593103 14.5833333,14.3318966 L14.5833333,11.5812177 L16.7081707,14.8861377 C17.2584485,15.6428619 18.4722222,15.2615589 18.4722222,14.3318966 L18.4722222,8.59913793 C18.4722222,8.07172414 18.0366667,7.64367816 17.5,7.64367816 C16.9633333,7.64367816 16.5277778,8.07172414 16.5277778,8.59913793 L16.5277778,11.4655172 L14.4029404,8.04489674 C14.1965862,7.76112519 13.8974043,7.63645393 13.6035161,7.64181215 Z M4.86111111,7.64367816 C4.32444444,7.64367816 3.88888889,8.07172414 3.88888889,8.59913793 L3.88888889,14.3318966 C3.88888889,14.8593103 4.32444444,15.2873563 4.86111111,15.2873563 L7.77777778,15.2873563 C8.31444444,15.2873563 8.75,14.8593103 8.75,14.3318966 C8.75,13.8044828 8.31444444,13.3764368 7.77777778,13.3764368 L5.83333333,13.3764368 L5.83333333,8.59913793 C5.83333333,8.07172414 5.39777778,7.64367816 4.86111111,7.64367816 Z M10.6944444,7.64367816 C10.1577778,7.64367816 9.72222222,8.07172414 9.72222222,8.59913793 L9.72222222,14.3318966 C9.72222222,14.8593103 10.1577778,15.2873563 10.6944444,15.2873563 C11.2311111,15.2873563 11.6666667,14.8593103 11.6666667,14.3318966 L11.6666667,8.59913793 C11.6666667,8.07172414 11.2311111,7.64367816 10.6944444,7.64367816 Z M20.4166667,7.64367816 C19.88,7.64367816 19.4444444,8.07172414 19.4444444,8.59913793 L19.4444444,14.3318966 C19.4444444,14.8593103 19.88,15.2873563 20.4166667,15.2873563 L23.3333333,15.2873563 C23.87,15.2873563 24.3055556,14.8593103 24.3055556,14.3318966 C24.3055556,13.8044828 23.87,13.3764368 23.3333333,13.3764368 L21.3888889,13.3764368 L21.3888889,12.420977 L23.3333333,12.420977 C23.8709722,12.420977 24.3055556,11.992931 24.3055556,11.4655172 C24.3055556,10.9381034 23.8709722,10.5100575 23.3333333,10.5100575 L21.3888889,10.5100575 L21.3888889,9.5545977 L23.3333333,9.5545977 C23.87,9.5545977 24.3055556,9.12655172 24.3055556,8.59913793 C24.3055556,8.07172414 23.87,7.64367816 23.3333333,7.64367816 L20.4166667,7.64367816 Z" id="Shape"></path>
                            </g>
                        </g>
                    </g>
                </g>
                <text id="LINE" font-family="Helvetica" font-size="10" font-weight="normal" fill="#000000" fill-opacity="0.497650787">
                    <tspan x="6.38427734" y="51">LINE</tspan>
                </text>
            </g>
        </g>
    </g>
</svg>