<?xml version="1.0" encoding="UTF-8"?>
<svg width="49px" height="51px" viewBox="0 0 49 51" version="1.1" xmlns="http://www.w3.org/2000/svg" xmlns:xlink="http://www.w3.org/1999/xlink">
    <!-- Generator: Sketch 57.1 (83088) - https://sketch.com -->
    <title>Group 3</title>
    <desc>Created with Sketch.</desc>
    <g id="🚗-General" stroke="none" stroke-width="1" fill="none" fill-rule="evenodd">
        <g id="top---menu" transform="translate(-91.000000, -547.000000)">
            <g id="Group-3" transform="translate(88.000000, 545.000000)">
                <g id="lv4:-SNS-/-WhatsApp" transform="translate(10.000000, 0.000000)">
                    <g id="WhatsApp">
                        <rect id="Rectangle" stroke="#979797" stroke-width="1.2" fill="#D8D8D8" opacity="0" x="0.6" y="0.6" width="33.8" height="33.8"></rect>
                        <path d="M27.8338643,7.15522972 C25.0920693,4.42341997 21.4457813,2.91820212 17.5608632,2.91666667 C9.55635144,2.91666667 3.04163706,9.39974922 3.0384337,17.3685218 C3.03740547,19.915762 3.7061157,22.402214 4.97693802,24.5938982 L2.91666667,32.0833333 L10.6151987,30.0735809 C12.7363733,31.2249355 15.1244942,31.8317157 17.5550892,31.8327393 L17.5610609,31.8327393 C25.5647817,31.8327393 32.0800892,25.3488693 32.0833333,17.380018 C32.0848745,13.5182712 30.5757384,9.88703948 27.8338643,7.15522972 Z M17.5610609,29.3917997 L17.5561174,29.3917997 C15.3902145,29.3909729 13.265876,28.8119097 11.4126363,27.7174063 L10.9718388,27.4570877 L6.40341966,28.6497421 L7.62283012,24.2169244 L7.33575415,23.7624299 C6.12749611,21.8498441 5.48935617,19.6391834 5.49030425,17.3694667 C5.49291545,10.7461853 10.9077322,5.3576456 17.5657275,5.3576456 C20.7896868,5.35886609 23.8203374,6.61006464 26.0992674,8.88060812 C28.3781974,11.1511516 29.6325283,14.1693433 29.6313427,17.3791125 C29.6287318,24.002945 24.2139546,29.3917997 17.5610609,29.3917997 L17.5610609,29.3917997 Z M24.181921,20.3950207 C23.8189928,20.2142701 22.0350404,19.3405965 21.7024056,19.220083 C21.3698104,19.0995302 21.1279373,19.0392931 20.8859456,19.400873 C20.6441121,19.7623741 19.9487072,20.5758106 19.7369694,20.8167982 C19.5253107,21.0578252 19.313652,21.0879831 18.9508028,20.9071932 C18.5879141,20.7264426 17.4187291,20.3450987 16.0327442,19.114806 C14.9540836,18.1573517 14.2257752,16.974658 14.0141165,16.6130782 C13.8024577,16.2515377 13.9916139,16.0561413 14.173256,15.87606 C14.3364689,15.7142861 14.5361051,15.4542825 14.7175495,15.2434134 C14.8989543,15.0325837 14.9594621,14.8818729 15.0803986,14.6408853 C15.2013747,14.3998583 15.1408669,14.1889499 15.0501447,14.0081993 C14.9594621,13.8274488 14.2337242,12.0499437 13.9313433,11.3269021 C13.6368324,10.622719 13.3376154,10.717996 13.1148833,10.7069328 C12.9034619,10.6964602 12.661312,10.6942555 12.4194389,10.6942555 C12.1775658,10.6942555 11.7844232,10.7846111 11.451828,11.1461515 C11.1192327,11.507692 10.1818362,12.3813656 10.1818362,14.1588313 C10.1818362,15.9362971 11.4820423,17.6535258 11.6634867,17.8945134 C11.844931,18.1355404 14.2221763,21.7831897 17.8622158,23.3474241 C18.7279917,23.7194765 19.40386,23.9416843 19.9308712,24.1081434 C20.8001273,24.382911 21.5911583,24.3441703 22.2164452,24.2512162 C22.9135902,24.1475534 24.3632467,23.3776214 24.6657067,22.5340663 C24.9680876,21.6904718 24.9680876,20.9674696 24.8773654,20.8168376 C24.7866432,20.6662056 24.5447702,20.5758106 24.181921,20.3950207 L24.181921,20.3950207 Z" id="Shape" fill-opacity="0.302748033" fill="#000000" fill-rule="nonzero"></path>
                    </g>
                </g>
                <text id="What’sApp" font-family="Helvetica" font-size="10" font-weight="normal" fill="#000000" fill-opacity="0.497650787">
                    <tspan x="3.32275391" y="51">What’sApp</tspan>
                </text>
            </g>
        </g>
    </g>
</svg>